<svg width="200" height="200" viewBox="0 0 200 200" fill="none" xmlns="http://www.w3.org/2000/svg">
<g clip-path="url(#clip0)">
<path fill-rule="evenodd" clip-rule="evenodd" d="M76.0001 101.723C71.7713 102.391 67.4719 101.513 63.3572 98.5305C50.6288 89.3046 48.848 76.1261 52.7758 62.6572C58.5117 42.9905 76.5943 22.7189 89.4028 14.0064C90.009 13.5931 90.8343 13.7522 91.2445 14.3572C91.6579 14.9634 91.5018 15.7897 90.8956 16.2031C78.4632 24.6585 60.8915 44.3156 55.3234 63.402C51.7173 75.7692 53.2251 87.9079 64.917 96.3803C68.3949 98.9043 72.0257 99.6335 75.6026 99.0773C75.2751 96.7343 75.0181 94.4127 74.8338 92.1171C74.3265 85.7801 76.0642 69.3075 81.4096 58.6452C85.2461 50.9976 90.9287 46.3413 98.6542 49.3307C102.948 50.9934 105.121 54.8126 105.507 59.7941C106.042 66.6424 103.112 75.7974 98.1615 83.8054C94.0413 90.4733 88.5361 96.3379 82.5769 99.4659C81.2658 100.151 79.9349 100.711 78.5903 101.121C83.7488 133.531 102.254 168.716 126.73 189.5C127.286 189.976 127.357 190.812 126.881 191.371C126.407 191.931 125.568 191.998 125.011 191.526C100.138 170.401 81.3071 134.684 76.0001 101.723ZM78.1944 98.4509C77.8916 96.2482 77.653 94.0648 77.4807 91.9051C76.9965 85.8324 78.6614 70.0522 83.7835 59.8366C86.926 53.5669 91.3651 49.3563 97.6969 51.8061C101.021 53.0947 102.559 56.1431 102.862 59.9998C103.192 64.2427 102.049 69.4223 99.9026 74.614C96.644 82.496 91.0625 90.3998 84.5813 95.0913C82.5288 96.5787 80.3834 97.7377 78.1944 98.4509Z" fill="#5087C9" fill-opacity="0.3"/>
<path fill-rule="evenodd" clip-rule="evenodd" d="M118.97 140.6C116.245 156.201 120.273 175.285 126.766 189.82C127.065 190.488 126.764 191.273 126.095 191.572C125.427 191.871 124.64 191.573 124.342 190.904C117.644 175.916 113.547 156.228 116.355 140.144C116.48 139.424 117.168 138.94 117.892 139.067C118.612 139.192 119.095 139.88 118.97 140.6Z" fill="#5087C9" fill-opacity="0.3"/>
<path fill-rule="evenodd" clip-rule="evenodd" d="M124.086 191.11C115.498 181.106 99.2584 174.355 86.0863 173.176C85.3555 173.111 84.8137 172.466 84.8818 171.736C84.9468 171.005 85.5905 170.467 86.3213 170.532C100.12 171.768 117.102 178.9 126.1 189.382C126.578 189.936 126.513 190.777 125.958 191.255C125.401 191.732 124.563 191.668 124.086 191.11Z" fill="#5087C9" fill-opacity="0.3"/>
</g>
<defs>
<clipPath id="clip0">
<rect width="156.12" height="156.12" fill="white" transform="matrix(0.941911 0.335862 0.335862 -0.941911 0 147.052)"/>
</clipPath>
</defs>
</svg>
