<svg width="200" height="200" viewBox="0 0 200 200" fill="none" xmlns="http://www.w3.org/2000/svg">
<g clip-path="url(#clip0)">
<path fill-rule="evenodd" clip-rule="evenodd" d="M123.486 101.723C127.715 102.391 132.014 101.513 136.129 98.5305C148.858 89.3046 150.638 76.1261 146.711 62.6572C140.975 42.9905 122.892 22.7189 110.083 14.0064C109.477 13.5931 108.652 13.7522 108.242 14.3572C107.828 14.9634 107.985 15.7897 108.591 16.2031C121.023 24.6585 138.595 44.3156 144.163 63.402C147.769 75.7692 146.261 87.9079 134.569 96.3803C131.091 98.9043 127.461 99.6335 123.884 99.0773C124.211 96.7343 124.468 94.4127 124.653 92.1171C125.16 85.7801 123.422 69.3075 118.077 58.6452C114.24 50.9976 108.558 46.3413 100.832 49.3307C96.5384 50.9934 94.3653 54.8126 93.9792 59.7941C93.4444 66.6424 96.3746 75.7974 101.325 83.8054C105.445 90.4733 110.95 96.3379 116.909 99.4659C118.221 100.151 119.551 100.711 120.896 101.121C115.738 133.531 97.2324 168.716 72.7565 189.5C72.2006 189.976 72.129 190.812 72.6058 191.371C73.0794 191.931 73.9178 191.998 74.4749 191.526C99.3485 170.401 118.179 134.684 123.486 101.723ZM121.292 98.4509C121.595 96.2482 121.833 94.0648 122.006 91.9051C122.49 85.8324 120.825 70.0522 115.703 59.8366C112.56 53.5669 108.121 49.3563 101.789 51.8061C98.4649 53.0947 96.9273 56.1431 96.6239 59.9998C96.2945 64.2427 97.4373 69.4223 99.5837 74.614C102.842 82.496 108.424 90.3998 114.905 95.0913C116.958 96.5787 119.103 97.7377 121.292 98.4509Z" fill="#5087C9" fill-opacity="0.3"/>
<path fill-rule="evenodd" clip-rule="evenodd" d="M80.5163 140.6C83.2413 156.201 79.2131 175.285 72.7202 189.82C72.4215 190.488 72.7228 191.273 73.3912 191.572C74.0596 191.871 74.846 191.573 75.1447 190.904C81.8422 175.916 85.9395 156.228 83.1313 140.144C83.0062 139.424 82.3179 138.94 81.5948 139.067C80.8748 139.192 80.3911 139.88 80.5163 140.6Z" fill="#5087C9" fill-opacity="0.3"/>
<path fill-rule="evenodd" clip-rule="evenodd" d="M75.4003 191.11C83.9888 181.106 100.228 174.355 113.4 173.176C114.131 173.111 114.673 172.466 114.605 171.736C114.54 171.005 113.896 170.467 113.165 170.532C99.3659 171.768 82.3844 178.9 73.3863 189.382C72.9083 189.936 72.9733 190.777 73.5279 191.255C74.0855 191.732 74.9234 191.668 75.4003 191.11Z" fill="#5087C9" fill-opacity="0.3"/>
</g>
<defs>
<clipPath id="clip0">
<rect width="156.12" height="156.12" fill="white" transform="translate(199.486 147.052) rotate(160.375)"/>
</clipPath>
</defs>
</svg>
