<svg width="28" height="28" viewBox="0 0 28 28" fill="none" xmlns="http://www.w3.org/2000/svg">
<path fill-rule="evenodd" clip-rule="evenodd" d="M12.6651 14.0076L12.6669 14.4133C12.6808 16.0226 12.7778 17.4584 12.9451 18.3683C12.9451 18.3848 13.1276 19.2872 13.2439 19.5876C13.4264 20.0218 13.7564 20.3903 14.1701 20.6238C14.5014 20.7904 14.8489 20.875 15.2126 20.875C15.4985 20.8617 15.9701 20.7179 16.3067 20.5972L16.5863 20.49C18.4388 19.7542 21.98 17.3498 23.3363 15.8794L23.4362 15.7766L23.8825 15.295C24.1638 14.9264 24.3125 14.4758 24.3125 13.9912C24.3125 13.557 24.18 13.1228 23.915 12.7719C23.8357 12.6582 23.7079 12.5124 23.5941 12.3892L23.1598 11.9345C21.6651 10.4201 18.4288 8.29585 16.7513 7.592C16.7513 7.57685 15.7089 7.14141 15.2126 7.125H15.1464C14.3851 7.125 13.6739 7.55918 13.3101 8.26095C13.2108 8.4528 13.1154 8.8286 13.0429 9.15866L12.9126 9.78185C12.7639 10.784 12.6651 12.3213 12.6651 14.0076ZM5.40998 12.2602C4.45874 12.2602 3.6875 13.039 3.6875 13.9995C3.6875 14.96 4.45874 15.7388 5.40998 15.7388L9.64868 15.3639C10.3949 15.3639 10.9999 14.7543 10.9999 13.9995C10.9999 13.246 10.3949 12.6351 9.64868 12.6351L5.40998 12.2602Z" fill="#09EBDF"/>
</svg>
