<svg width="40" height="44" viewBox="0 0 40 44" fill="none" xmlns="http://www.w3.org/2000/svg">
<path fill-rule="evenodd" clip-rule="evenodd" d="M13.3834 40.8962C9.56402 39.8244 5.56522 39.2837 1.68612 38.7884C0.850621 38.6846 0.0749171 39.264 0.0152387 40.0804C-0.104118 40.8974 0.493016 41.6446 1.26884 41.7485C5.02858 42.2253 8.90733 42.7355 12.5477 43.7674C13.3235 43.9912 14.1594 43.5305 14.3981 42.7379C14.6368 41.946 14.1593 41.1206 13.3834 40.8962Z" fill="#5087C9"/>
<path fill-rule="evenodd" clip-rule="evenodd" d="M24.9605 25.7003C18.8136 19.4275 11.8909 13.9621 5.86335 7.52101C5.32625 6.91945 4.37139 6.88722 3.77461 7.4488C3.17782 8.01097 3.11838 8.95628 3.71516 9.55783C9.74268 16.0174 16.6654 21.5007 22.8123 27.792C23.4091 28.3792 24.3637 28.3876 24.9605 27.8099C25.4976 27.2328 25.5572 26.2875 24.9605 25.7003Z" fill="#5087C9"/>
<path fill-rule="evenodd" clip-rule="evenodd" d="M36.4794 1.57298C36.6584 5.16324 36.8371 8.75349 37.0161 12.3443C37.0161 13.1667 37.7326 13.8017 38.5681 13.7617C39.4036 13.7211 40.0001 13.0211 40.0001 12.1981C39.821 8.60191 39.6423 5.00628 39.4633 1.41065C39.4036 0.588285 38.6874 -0.0425168 37.8519 0.00224202C37.0761 0.0470009 36.4197 0.751209 36.4794 1.57298Z" fill="#5087C9"/>
</svg>
