<svg width="156" height="60" viewBox="0 0 156 60" fill="none" xmlns="http://www.w3.org/2000/svg">
<path d="M55.1466 44C54.7999 44 54.5163 43.8897 54.2956 43.669C54.075 43.4169 53.9647 43.1175 53.9647 42.7708V38.1847C53.9647 37.5228 54.2011 36.9555 54.6739 36.4827L69.8976 17.9495H55.5721C55.257 17.9495 54.9733 17.8392 54.7211 17.6186C54.5005 17.3664 54.3902 17.0827 54.3902 16.7675V12.087C54.3902 11.7402 54.5005 11.4566 54.7211 11.2359C54.9733 11.0153 55.257 10.905 55.5721 10.905H79.4478C79.7945 10.905 80.0782 11.0153 80.2988 11.2359C80.5195 11.4566 80.6298 11.7402 80.6298 12.087V16.673C80.6298 17.2088 80.4249 17.7446 80.0152 18.2805L65.217 36.8609H79.9679C80.3146 36.8609 80.5983 36.987 80.8189 37.2392C81.0711 37.4598 81.1971 37.7435 81.1971 38.0902V42.818C81.1971 43.1647 81.0711 43.4484 80.8189 43.669C80.5983 43.8897 80.3146 44 79.9679 44H55.1466ZM87.6455 44C87.3303 44 87.0466 43.8897 86.7945 43.669C86.5738 43.4169 86.4635 43.1332 86.4635 42.818V12.087C86.4635 11.7402 86.5738 11.4566 86.7945 11.2359C87.0466 11.0153 87.3303 10.905 87.6455 10.905H92.7516C93.508 10.905 94.0596 11.2517 94.4063 11.9451L102.727 26.8379L111.048 11.9451C111.395 11.2517 111.947 10.905 112.703 10.905H117.762C118.109 10.905 118.392 11.0153 118.613 11.2359C118.865 11.4566 118.991 11.7402 118.991 12.087V42.818C118.991 43.1647 118.865 43.4484 118.613 43.669C118.392 43.8897 118.109 44 117.762 44H112.136C111.789 44 111.49 43.8897 111.238 43.669C111.017 43.4484 110.907 43.1647 110.907 42.818V25.0886L105.611 34.9698C105.202 35.6947 104.65 36.0572 103.957 36.0572H101.498C101.088 36.0572 100.757 35.9626 100.505 35.7735C100.253 35.5844 100.032 35.3165 99.8434 34.9698L94.5009 25.0886V42.818C94.5009 43.1332 94.3906 43.4169 94.1699 43.669C93.9493 43.8897 93.6656 44 93.3189 44H87.6455ZM127.034 44C126.719 44 126.436 43.8897 126.183 43.669C125.963 43.4169 125.852 43.1332 125.852 42.818V12.087C125.852 11.7402 125.963 11.4566 126.183 11.2359C126.436 11.0153 126.719 10.905 127.034 10.905H141.454C145.426 10.905 148.373 11.7245 150.296 13.3635C152.25 14.971 153.227 17.2718 153.227 20.2662C153.227 21.8421 152.817 23.1817 151.998 24.2848C151.21 25.3565 150.311 26.1445 149.303 26.6488C150.595 27.2476 151.682 28.209 152.565 29.5328C153.447 30.8566 153.889 32.338 153.889 33.9769C153.889 37.1288 152.849 39.5873 150.768 41.3524C148.688 43.1175 145.725 44 141.88 44H127.034ZM140.509 24.0484C141.77 24.0484 142.731 23.7332 143.393 23.1029C144.055 22.441 144.386 21.5742 144.386 20.5025C144.386 19.4624 144.055 18.6272 143.393 17.9968C142.731 17.3664 141.77 17.0512 140.509 17.0512H134.363V24.0484H140.509ZM140.934 37.8538C142.227 37.8538 143.235 37.4756 143.96 36.7191C144.685 35.9626 145.048 35.0486 145.048 33.9769C145.048 32.8423 144.685 31.9124 143.96 31.1875C143.235 30.431 142.227 30.0528 140.934 30.0528H134.363V37.8538H140.934Z" fill="white"/>
<path d="M60.6462 57.1C59.7862 57.1 59.1195 56.87 58.6462 56.41C58.1795 55.9433 57.9462 55.24 57.9462 54.3V50.24C57.9462 50.1667 57.9662 50.11 58.0062 50.07C58.0529 50.0233 58.1095 50 58.1762 50H58.6862C58.7595 50 58.8162 50.0233 58.8562 50.07C58.9029 50.11 58.9262 50.1667 58.9262 50.24V54.32C58.9262 54.96 59.0762 55.44 59.3762 55.76C59.6762 56.08 60.0995 56.24 60.6462 56.24C61.1929 56.24 61.6162 56.08 61.9162 55.76C62.2162 55.44 62.3662 54.96 62.3662 54.32V50.24C62.3662 50.1667 62.3862 50.11 62.4262 50.07C62.4729 50.0233 62.5295 50 62.5962 50H63.1162C63.1829 50 63.2362 50.0233 63.2762 50.07C63.3229 50.1167 63.3462 50.1733 63.3462 50.24V54.3C63.3462 55.24 63.1095 55.9433 62.6362 56.41C62.1695 56.87 61.5062 57.1 60.6462 57.1ZM65.3543 57C65.2876 57 65.231 56.98 65.1843 56.94C65.1443 56.8933 65.1243 56.8367 65.1243 56.77V52.03C65.1243 51.9633 65.1443 51.91 65.1843 51.87C65.231 51.8233 65.2876 51.8 65.3543 51.8H65.8243C65.891 51.8 65.9443 51.8233 65.9843 51.87C66.031 51.91 66.0543 51.9633 66.0543 52.03V52.47C66.2476 52.2233 66.4743 52.0333 66.7343 51.9C67.001 51.7667 67.331 51.7 67.7243 51.7C68.3643 51.7 68.861 51.9067 69.2143 52.32C69.5743 52.7267 69.7543 53.27 69.7543 53.95V56.77C69.7543 56.8367 69.731 56.8933 69.6843 56.94C69.6443 56.98 69.591 57 69.5243 57H69.0243C68.9576 57 68.901 56.98 68.8543 56.94C68.8143 56.8933 68.7943 56.8367 68.7943 56.77V54C68.7943 53.5267 68.6776 53.16 68.4443 52.9C68.2176 52.64 67.8876 52.51 67.4543 52.51C67.0343 52.51 66.701 52.6433 66.4543 52.91C66.2076 53.17 66.0843 53.5333 66.0843 54V56.77C66.0843 56.8367 66.061 56.8933 66.0143 56.94C65.9743 56.98 65.921 57 65.8543 57H65.3543ZM71.5752 50.83C71.5085 50.83 71.4518 50.81 71.4052 50.77C71.3652 50.7233 71.3452 50.6667 71.3452 50.6V50.06C71.3452 49.9933 71.3652 49.9367 71.4052 49.89C71.4518 49.8433 71.5085 49.82 71.5752 49.82H72.2052C72.2718 49.82 72.3285 49.8433 72.3752 49.89C72.4218 49.9367 72.4452 49.9933 72.4452 50.06V50.6C72.4452 50.6667 72.4218 50.7233 72.3752 50.77C72.3285 50.81 72.2718 50.83 72.2052 50.83H71.5752ZM71.6552 57C71.5885 57 71.5318 56.98 71.4852 56.94C71.4452 56.8933 71.4252 56.8367 71.4252 56.77V52.03C71.4252 51.9633 71.4452 51.91 71.4852 51.87C71.5318 51.8233 71.5885 51.8 71.6552 51.8H72.1352C72.2018 51.8 72.2552 51.8233 72.2952 51.87C72.3418 51.91 72.3652 51.9633 72.3652 52.03V56.77C72.3652 56.8367 72.3418 56.8933 72.2952 56.94C72.2552 56.98 72.2018 57 72.1352 57H71.6552ZM75.8934 57C75.7201 57 75.5968 56.9167 75.5234 56.75L73.6734 52.11L73.6534 52.01C73.6534 51.95 73.6734 51.9 73.7134 51.86C73.7534 51.82 73.8034 51.8 73.8634 51.8H74.3434C74.4568 51.8 74.5401 51.8567 74.5934 51.97L76.1134 55.91L77.6334 51.97C77.6934 51.8567 77.7734 51.8 77.8734 51.8H78.3634C78.4168 51.8 78.4634 51.82 78.5034 51.86C78.5501 51.9 78.5734 51.95 78.5734 52.01L78.5534 52.11L76.6934 56.75C76.6201 56.9167 76.4968 57 76.3234 57H75.8934ZM81.7514 57.1C81.0647 57.1 80.5147 56.89 80.1014 56.47C79.6947 56.0433 79.4714 55.4633 79.4314 54.73L79.4214 54.39L79.4314 54.06C79.478 53.34 79.7047 52.7667 80.1114 52.34C80.5247 51.9133 81.068 51.7 81.7414 51.7C82.4814 51.7 83.0547 51.9367 83.4614 52.41C83.868 52.8767 84.0714 53.51 84.0714 54.31V54.48C84.0714 54.5467 84.048 54.6033 84.0014 54.65C83.9614 54.69 83.908 54.71 83.8414 54.71H80.3814V54.8C80.4014 55.2333 80.5314 55.6033 80.7714 55.91C81.018 56.21 81.3414 56.36 81.7414 56.36C82.048 56.36 82.298 56.3 82.4914 56.18C82.6914 56.0533 82.838 55.9233 82.9314 55.79C82.9914 55.71 83.0347 55.6633 83.0614 55.65C83.0947 55.63 83.1514 55.62 83.2314 55.62H83.7214C83.7814 55.62 83.8314 55.6367 83.8714 55.67C83.9114 55.7033 83.9314 55.75 83.9314 55.81C83.9314 55.9567 83.838 56.1333 83.6514 56.34C83.4714 56.5467 83.2147 56.7267 82.8814 56.88C82.5547 57.0267 82.178 57.1 81.7514 57.1ZM83.1214 54.02V53.99C83.1214 53.53 82.9947 53.1567 82.7414 52.87C82.4947 52.5767 82.1614 52.43 81.7414 52.43C81.3214 52.43 80.988 52.5767 80.7414 52.87C80.5014 53.1567 80.3814 53.53 80.3814 53.99V54.02H83.1214ZM85.7335 57C85.6668 57 85.6101 56.98 85.5635 56.94C85.5235 56.8933 85.5035 56.8367 85.5035 56.77V52.04C85.5035 51.9733 85.5235 51.9167 85.5635 51.87C85.6101 51.8233 85.6668 51.8 85.7335 51.8H86.1935C86.2601 51.8 86.3168 51.8233 86.3635 51.87C86.4101 51.9167 86.4335 51.9733 86.4335 52.04V52.48C86.7068 52.0267 87.1735 51.8 87.8335 51.8H88.2235C88.2901 51.8 88.3435 51.8233 88.3835 51.87C88.4301 51.91 88.4535 51.9633 88.4535 52.03V52.44C88.4535 52.5067 88.4301 52.56 88.3835 52.6C88.3435 52.64 88.2901 52.66 88.2235 52.66H87.6235C87.2635 52.66 86.9801 52.7667 86.7735 52.98C86.5668 53.1867 86.4635 53.47 86.4635 53.83V56.77C86.4635 56.8367 86.4401 56.8933 86.3935 56.94C86.3468 56.98 86.2901 57 86.2235 57H85.7335ZM91.3387 57.1C90.872 57.1 90.4787 57.0267 90.1587 56.88C89.8454 56.7267 89.6087 56.5533 89.4487 56.36C89.2954 56.1667 89.2187 56.0067 89.2187 55.88C89.2187 55.8133 89.242 55.7633 89.2887 55.73C89.342 55.69 89.3954 55.67 89.4487 55.67H89.8987C89.9654 55.67 90.0254 55.7033 90.0787 55.77C90.2387 55.9567 90.412 56.1033 90.5987 56.21C90.7854 56.3167 91.0354 56.37 91.3487 56.37C91.6954 56.37 91.9754 56.3033 92.1887 56.17C92.4087 56.03 92.5187 55.84 92.5187 55.6C92.5187 55.44 92.472 55.31 92.3787 55.21C92.292 55.1033 92.1387 55.0133 91.9187 54.94C91.7054 54.86 91.3854 54.7733 90.9587 54.68C90.3787 54.5533 89.9654 54.37 89.7187 54.13C89.4787 53.89 89.3587 53.58 89.3587 53.2C89.3587 52.9467 89.432 52.7067 89.5787 52.48C89.732 52.2467 89.952 52.06 90.2387 51.92C90.532 51.7733 90.882 51.7 91.2887 51.7C91.7154 51.7 92.0787 51.77 92.3787 51.91C92.6787 52.05 92.902 52.2167 93.0487 52.41C93.202 52.5967 93.2787 52.7533 93.2787 52.88C93.2787 52.94 93.2554 52.99 93.2087 53.03C93.1687 53.07 93.1187 53.09 93.0587 53.09H92.6387C92.5587 53.09 92.492 53.0567 92.4387 52.99C92.332 52.8633 92.2387 52.7667 92.1587 52.7C92.0854 52.6267 91.9754 52.5633 91.8287 52.51C91.6887 52.4567 91.5087 52.43 91.2887 52.43C90.9687 52.43 90.722 52.5 90.5487 52.64C90.3754 52.7733 90.2887 52.95 90.2887 53.17C90.2887 53.31 90.3254 53.43 90.3987 53.53C90.472 53.6233 90.612 53.71 90.8187 53.79C91.032 53.87 91.3387 53.9533 91.7387 54.04C92.372 54.1733 92.8187 54.3667 93.0787 54.62C93.3454 54.8667 93.4787 55.1833 93.4787 55.57C93.4787 55.8567 93.3954 56.1167 93.2287 56.35C93.062 56.5833 92.8154 56.7667 92.4887 56.9C92.1687 57.0333 91.7854 57.1 91.3387 57.1ZM96.3227 57.1C95.9961 57.1 95.6927 57.0333 95.4127 56.9C95.1327 56.7667 94.9094 56.5867 94.7427 56.36C94.5827 56.1267 94.5027 55.87 94.5027 55.59C94.5027 55.15 94.6827 54.79 95.0427 54.51C95.4094 54.2233 95.9027 54.0367 96.5227 53.95L98.0127 53.74V53.45C98.0127 52.77 97.6227 52.43 96.8427 52.43C96.5494 52.43 96.3094 52.4933 96.1227 52.62C95.9361 52.74 95.7961 52.8833 95.7027 53.05C95.6827 53.11 95.6561 53.1533 95.6227 53.18C95.5961 53.2067 95.5561 53.22 95.5027 53.22H95.0727C95.0127 53.22 94.9594 53.2 94.9127 53.16C94.8727 53.1133 94.8527 53.06 94.8527 53C94.8594 52.84 94.9327 52.66 95.0727 52.46C95.2194 52.2533 95.4427 52.0767 95.7427 51.93C96.0427 51.7767 96.4127 51.7 96.8527 51.7C97.5994 51.7 98.1361 51.8767 98.4627 52.23C98.7894 52.5767 98.9527 53.01 98.9527 53.53V56.77C98.9527 56.8367 98.9294 56.8933 98.8827 56.94C98.8427 56.98 98.7894 57 98.7227 57H98.2627C98.1961 57 98.1394 56.98 98.0927 56.94C98.0527 56.8933 98.0327 56.8367 98.0327 56.77V56.34C97.8861 56.5533 97.6727 56.7333 97.3927 56.88C97.1127 57.0267 96.7561 57.1 96.3227 57.1ZM96.5327 56.35C96.9661 56.35 97.3194 56.21 97.5927 55.93C97.8727 55.6433 98.0127 55.2333 98.0127 54.7V54.42L96.8527 54.59C96.3794 54.6567 96.0227 54.77 95.7827 54.93C95.5427 55.0833 95.4227 55.28 95.4227 55.52C95.4227 55.7867 95.5327 55.9933 95.7527 56.14C95.9727 56.28 96.2327 56.35 96.5327 56.35ZM100.867 57C100.8 57 100.743 56.98 100.697 56.94C100.657 56.8933 100.637 56.8367 100.637 56.77V50.13C100.637 50.0633 100.657 50.01 100.697 49.97C100.743 49.9233 100.8 49.9 100.867 49.9H101.337C101.403 49.9 101.457 49.9233 101.497 49.97C101.543 50.01 101.567 50.0633 101.567 50.13V56.77C101.567 56.8367 101.543 56.8933 101.497 56.94C101.457 56.98 101.403 57 101.337 57H100.867ZM105.379 57C105.325 57 105.279 56.98 105.239 56.94C105.199 56.9 105.179 56.8533 105.179 56.8C105.179 56.7467 105.182 56.71 105.189 56.69L107.669 50.22C107.722 50.0733 107.829 50 107.989 50H108.669C108.829 50 108.935 50.0733 108.989 50.22L111.459 56.69L111.479 56.8C111.479 56.8533 111.459 56.9 111.419 56.94C111.379 56.98 111.332 57 111.279 57H110.769C110.695 57 110.639 56.9833 110.599 56.95C110.559 56.91 110.532 56.87 110.519 56.83L109.969 55.41H106.689L106.139 56.83C106.125 56.87 106.095 56.91 106.049 56.95C106.009 56.9833 105.955 57 105.889 57H105.379ZM109.679 54.55L108.329 51L106.979 54.55H109.679ZM114.696 57.1C113.982 57.1 113.422 56.9 113.016 56.5C112.616 56.0933 112.402 55.5267 112.376 54.8L112.366 54.4L112.376 54C112.402 53.2733 112.616 52.71 113.016 52.31C113.422 51.9033 113.982 51.7 114.696 51.7C115.176 51.7 115.582 51.7867 115.916 51.96C116.249 52.1333 116.496 52.3467 116.656 52.6C116.822 52.8533 116.912 53.1067 116.926 53.36C116.932 53.4267 116.912 53.48 116.866 53.52C116.819 53.56 116.762 53.58 116.696 53.58H116.216C116.149 53.58 116.099 53.5667 116.066 53.54C116.032 53.5133 115.999 53.46 115.966 53.38C115.852 53.06 115.692 52.8333 115.486 52.7C115.279 52.56 115.019 52.49 114.706 52.49C114.292 52.49 113.962 52.62 113.716 52.88C113.476 53.1333 113.346 53.5233 113.326 54.05L113.316 54.41L113.326 54.75C113.346 55.2833 113.476 55.6767 113.716 55.93C113.956 56.1833 114.286 56.31 114.706 56.31C115.019 56.31 115.279 56.2433 115.486 56.11C115.692 55.97 115.852 55.74 115.966 55.42C115.999 55.34 116.032 55.2867 116.066 55.26C116.099 55.2267 116.149 55.21 116.216 55.21H116.696C116.762 55.21 116.819 55.2333 116.866 55.28C116.912 55.32 116.932 55.3733 116.926 55.44C116.912 55.6867 116.822 55.94 116.656 56.2C116.496 56.4533 116.249 56.6667 115.916 56.84C115.589 57.0133 115.182 57.1 114.696 57.1ZM119.8 57.1C119.473 57.1 119.17 57.0333 118.89 56.9C118.61 56.7667 118.386 56.5867 118.22 56.36C118.06 56.1267 117.98 55.87 117.98 55.59C117.98 55.15 118.16 54.79 118.52 54.51C118.886 54.2233 119.38 54.0367 120 53.95L121.49 53.74V53.45C121.49 52.77 121.1 52.43 120.32 52.43C120.026 52.43 119.786 52.4933 119.6 52.62C119.413 52.74 119.273 52.8833 119.18 53.05C119.16 53.11 119.133 53.1533 119.1 53.18C119.073 53.2067 119.033 53.22 118.98 53.22H118.55C118.49 53.22 118.436 53.2 118.39 53.16C118.35 53.1133 118.33 53.06 118.33 53C118.336 52.84 118.41 52.66 118.55 52.46C118.696 52.2533 118.92 52.0767 119.22 51.93C119.52 51.7767 119.89 51.7 120.33 51.7C121.076 51.7 121.613 51.8767 121.94 52.23C122.266 52.5767 122.43 53.01 122.43 53.53V56.77C122.43 56.8367 122.406 56.8933 122.36 56.94C122.32 56.98 122.266 57 122.2 57H121.74C121.673 57 121.616 56.98 121.57 56.94C121.53 56.8933 121.51 56.8367 121.51 56.77V56.34C121.363 56.5533 121.15 56.7333 120.87 56.88C120.59 57.0267 120.233 57.1 119.8 57.1ZM120.01 56.35C120.443 56.35 120.796 56.21 121.07 55.93C121.35 55.6433 121.49 55.2333 121.49 54.7V54.42L120.33 54.59C119.856 54.6567 119.5 54.77 119.26 54.93C119.02 55.0833 118.9 55.28 118.9 55.52C118.9 55.7867 119.01 55.9933 119.23 56.14C119.45 56.28 119.71 56.35 120.01 56.35ZM126.004 57.1C125.31 57.1 124.787 56.8733 124.434 56.42C124.08 55.9667 123.894 55.3933 123.874 54.7L123.864 54.4L123.874 54.1C123.894 53.4133 124.08 52.8433 124.434 52.39C124.787 51.93 125.31 51.7 126.004 51.7C126.69 51.7 127.23 51.9433 127.624 52.43V50.13C127.624 50.0633 127.644 50.01 127.684 49.97C127.73 49.9233 127.787 49.9 127.854 49.9H128.334C128.4 49.9 128.454 49.9233 128.494 49.97C128.54 50.01 128.564 50.0633 128.564 50.13V56.77C128.564 56.8367 128.54 56.8933 128.494 56.94C128.454 56.98 128.4 57 128.334 57H127.884C127.817 57 127.76 56.98 127.714 56.94C127.674 56.8933 127.654 56.8367 127.654 56.77V56.35C127.267 56.85 126.717 57.1 126.004 57.1ZM126.214 56.29C126.674 56.29 127.017 56.14 127.244 55.84C127.477 55.5333 127.604 55.17 127.624 54.75C127.63 54.6767 127.634 54.55 127.634 54.37C127.634 54.1833 127.63 54.0533 127.624 53.98C127.61 53.5867 127.484 53.2433 127.244 52.95C127.004 52.6567 126.66 52.51 126.214 52.51C125.74 52.51 125.394 52.6567 125.174 52.95C124.96 53.2433 124.844 53.63 124.824 54.11L124.814 54.4C124.814 55.66 125.28 56.29 126.214 56.29ZM132.367 57.1C131.681 57.1 131.131 56.89 130.717 56.47C130.311 56.0433 130.087 55.4633 130.047 54.73L130.037 54.39L130.047 54.06C130.094 53.34 130.321 52.7667 130.727 52.34C131.141 51.9133 131.684 51.7 132.357 51.7C133.097 51.7 133.671 51.9367 134.077 52.41C134.484 52.8767 134.687 53.51 134.687 54.31V54.48C134.687 54.5467 134.664 54.6033 134.617 54.65C134.577 54.69 134.524 54.71 134.457 54.71H130.997V54.8C131.017 55.2333 131.147 55.6033 131.387 55.91C131.634 56.21 131.957 56.36 132.357 56.36C132.664 56.36 132.914 56.3 133.107 56.18C133.307 56.0533 133.454 55.9233 133.547 55.79C133.607 55.71 133.651 55.6633 133.677 55.65C133.711 55.63 133.767 55.62 133.847 55.62H134.337C134.397 55.62 134.447 55.6367 134.487 55.67C134.527 55.7033 134.547 55.75 134.547 55.81C134.547 55.9567 134.454 56.1333 134.267 56.34C134.087 56.5467 133.831 56.7267 133.497 56.88C133.171 57.0267 132.794 57.1 132.367 57.1ZM133.737 54.02V53.99C133.737 53.53 133.611 53.1567 133.357 52.87C133.111 52.5767 132.777 52.43 132.357 52.43C131.937 52.43 131.604 52.5767 131.357 52.87C131.117 53.1567 130.997 53.53 130.997 53.99V54.02H133.737ZM136.349 57C136.283 57 136.226 56.98 136.179 56.94C136.139 56.8933 136.119 56.8367 136.119 56.77V52.03C136.119 51.9633 136.139 51.91 136.179 51.87C136.226 51.8233 136.283 51.8 136.349 51.8H136.799C136.866 51.8 136.919 51.8233 136.959 51.87C137.006 51.91 137.029 51.9633 137.029 52.03V52.38C137.376 51.9267 137.859 51.7 138.479 51.7C139.219 51.7 139.743 52.0067 140.049 52.62C140.209 52.34 140.436 52.1167 140.729 51.95C141.023 51.7833 141.353 51.7 141.719 51.7C142.266 51.7 142.713 51.8867 143.059 52.26C143.406 52.6333 143.579 53.1733 143.579 53.88V56.77C143.579 56.8367 143.556 56.8933 143.509 56.94C143.469 56.98 143.416 57 143.349 57H142.879C142.813 57 142.756 56.98 142.709 56.94C142.669 56.8933 142.649 56.8367 142.649 56.77V53.97C142.649 53.45 142.539 53.0767 142.319 52.85C142.106 52.6233 141.823 52.51 141.469 52.51C141.156 52.51 140.886 52.6267 140.659 52.86C140.433 53.0867 140.319 53.4567 140.319 53.97V56.77C140.319 56.8367 140.296 56.8933 140.249 56.94C140.209 56.98 140.156 57 140.089 57H139.619C139.553 57 139.496 56.98 139.449 56.94C139.409 56.8933 139.389 56.8367 139.389 56.77V53.97C139.389 53.45 139.276 53.0767 139.049 52.85C138.829 52.6233 138.549 52.51 138.209 52.51C137.896 52.51 137.626 52.6267 137.399 52.86C137.173 53.0867 137.059 53.4533 137.059 53.96V56.77C137.059 56.8367 137.036 56.8933 136.989 56.94C136.949 56.98 136.896 57 136.829 57H136.349ZM145.996 58.9C145.943 58.9 145.896 58.88 145.856 58.84C145.816 58.8 145.796 58.7533 145.796 58.7C145.796 58.6533 145.813 58.5933 145.846 58.52L146.616 56.69L144.706 52.18C144.673 52.0933 144.656 52.0367 144.656 52.01C144.656 51.95 144.676 51.9 144.716 51.86C144.756 51.82 144.806 51.8 144.866 51.8H145.356C145.463 51.8 145.543 51.8567 145.596 51.97L147.116 55.61L148.676 51.97C148.73 51.8567 148.813 51.8 148.926 51.8H149.396C149.456 51.8 149.506 51.82 149.546 51.86C149.586 51.9 149.606 51.9467 149.606 52C149.606 52.02 149.59 52.08 149.556 52.18L146.716 58.73C146.663 58.8433 146.58 58.9 146.466 58.9H145.996Z" fill="white"/>
<path d="M8.5 26.5H1C1 26.5 1.06467 30.1894 1.5 32.5C2.07162 35.534 2.56076 37.2686 4 40C5.11111 42.1087 5.91366 43.2211 7.5 45C9.0649 46.7549 10.0576 47.675 12 49C14.8171 50.9216 16.707 51.6139 20 52.5C22.6666 53.2175 27 53.5 27 53.5V45C27 45 17.8979 43.3979 14 39.5C10.1021 35.6021 8.5 26.5 8.5 26.5Z" fill="white" stroke="white"/>
<path d="M42.5 11H11.5C10.9477 11 10.5 11.4477 10.5 12V19.1429C10.5 19.6951 10.9477 20.1429 11.5 20.1429H34.119C34.6713 20.1429 35.119 20.5906 35.119 21.1429V42C35.119 42.5523 35.5668 43 36.119 43H42.5C43.0523 43 43.5 42.5523 43.5 42V12C43.5 11.4477 43.0523 11 42.5 11Z" fill="white"/>
</svg>
