<svg width="44" height="44" viewBox="0 0 44 44" fill="none" xmlns="http://www.w3.org/2000/svg">
<path d="M8.5 15.5H1C1 15.5 1.06467 19.1894 1.5 21.5C2.07162 24.534 2.56076 26.2686 4 29C5.11111 31.1087 5.91366 32.2211 7.5 34C9.0649 35.7549 10.0576 36.675 12 38C14.8171 39.9216 16.707 40.6139 20 41.5C22.6666 42.2175 27 42.5 27 42.5V34C27 34 17.8979 32.3979 14 28.5C10.1021 24.6021 8.5 15.5 8.5 15.5Z" fill="white" stroke="white"/>
<path d="M42.5 0H11.5C10.9477 0 10.5 0.447715 10.5 1V8.14286C10.5 8.69514 10.9477 9.14286 11.5 9.14286H34.119C34.6713 9.14286 35.119 9.59057 35.119 10.1429V31C35.119 31.5523 35.5668 32 36.119 32H42.5C43.0523 32 43.5 31.5523 43.5 31V1C43.5 0.447715 43.0523 0 42.5 0Z" fill="white"/>
</svg>
