<svg width="179" height="179" viewBox="0 0 179 179" fill="none" xmlns="http://www.w3.org/2000/svg">
<g clip-path="url(#clip0_64:18122)">
<path fill-rule="evenodd" clip-rule="evenodd" d="M58.2114 16.0679C52.1178 30.6303 53.0564 49.4941 58.5768 68.2002C66.8283 96.1485 85.2852 123.738 105.408 136.015C105.826 136.263 106.369 136.13 106.618 135.721C106.874 135.302 106.743 134.767 106.324 134.511C86.5149 122.421 68.388 95.2229 60.2689 67.6979C54.8702 49.417 53.8766 30.9819 59.8396 16.7493C60.0306 16.2982 59.8174 15.7854 59.3663 15.5945C58.9248 15.4105 58.4023 15.6167 58.2114 16.0679Z" fill="#5087C9" fill-opacity="0.35"/>
<path fill-rule="evenodd" clip-rule="evenodd" d="M124.199 156.752C112.907 149.044 103.773 141.134 89.5809 137.955C89.1018 137.855 88.6278 138.147 88.5271 138.626C88.4167 139.098 88.7175 139.571 89.1882 139.673C104.803 143.173 114.177 152.533 127.247 160.889C127.954 161.337 128.415 160.91 128.516 160.799C128.669 160.637 128.858 160.332 128.698 159.879C128.666 159.79 128.579 159.624 128.424 159.41C128.117 159.007 127.425 158.239 127.149 157.865C126.362 156.78 125.606 155.68 124.819 154.594C122.568 151.489 120.357 148.37 118.376 145.092C110.949 132.84 104.797 122.87 107.987 108.385C108.096 107.905 107.796 107.44 107.316 107.331C106.845 107.229 106.372 107.53 106.27 108.001C102.966 122.985 109.19 133.337 116.867 146.009C118.879 149.324 121.115 152.491 123.388 155.627C123.664 156.001 123.932 156.376 124.199 156.752Z" fill="#5087C9" fill-opacity="0.35"/>
</g>
<defs>
<clipPath id="clip0_64:18122">
<rect width="155" height="155" fill="white" transform="translate(0 25.2695) rotate(-9.38275)"/>
</clipPath>
</defs>
</svg>
