<svg width="64" height="64" viewBox="0 0 64 64" fill="none" xmlns="http://www.w3.org/2000/svg">
<g id="Iconly/Bold/Calendar">
<g id="Calendar">
<path id="Calendar_2" fill-rule="evenodd" clip-rule="evenodd" d="M43.7623 7.3829L43.765 9.3819C51.1107 9.95761 55.9631 14.9631 55.971 22.6393L55.9999 45.108C56.0105 53.4771 50.7526 58.6266 42.3248 58.6399L21.7384 58.6665C13.3632 58.6772 8.03951 53.4052 8.02898 45.012L8.00002 22.8072C7.98949 15.0804 12.6707 10.0882 20.0165 9.41388L20.0138 7.41488C20.0112 6.24214 20.88 5.35991 22.0385 5.35991C23.197 5.35725 24.0658 6.23681 24.0684 7.40955L24.0711 9.27528L39.7104 9.25396L39.7077 7.38823C39.7051 6.21548 40.5739 5.33592 41.7324 5.33326C42.8645 5.33059 43.7597 6.21015 43.7623 7.3829ZM12.0572 23.6308L51.919 23.5775V22.6447C51.8057 16.9142 48.9306 13.9077 43.7702 13.4599L43.7728 15.5122C43.7728 16.6583 42.8803 17.5672 41.7482 17.5672C40.5897 17.5699 39.7182 16.6637 39.7182 15.5176L39.7156 13.3587L24.0763 13.38L24.0789 15.5362C24.0789 16.685 23.2127 17.5912 22.0543 17.5912C20.8958 17.5939 20.0243 16.6903 20.0243 15.5416L20.0217 13.4893C14.8876 14.0037 12.0467 17.0208 12.0546 22.8019L12.0572 23.6308ZM40.6407 35.7448V35.7741C40.667 37.0002 41.6675 37.9304 42.8813 37.9037C44.0661 37.8744 45.0113 36.8589 44.985 35.6329C44.9297 34.4601 43.9792 33.5033 42.797 33.5059C41.5859 33.5326 40.6381 34.5188 40.6407 35.7448ZM42.8138 47.7123C41.6027 47.6856 40.6259 46.6754 40.6233 45.4494C40.5969 44.2233 41.5685 43.2078 42.7796 43.1785H42.8059C44.0434 43.1785 45.0465 44.1887 45.0465 45.4414C45.0491 46.6941 44.0486 47.7096 42.8138 47.7123ZM29.793 35.7873C29.8457 37.0134 30.8488 37.9702 32.0599 37.9169C33.2447 37.861 34.1899 36.8481 34.1373 35.6221C34.1083 34.4227 33.1341 33.4898 31.9493 33.4925C30.7382 33.5458 29.7904 34.5613 29.793 35.7873ZM32.0693 47.5922C30.8581 47.6455 29.8576 46.6887 29.8023 45.4626C29.8023 44.2366 30.7475 43.2237 31.9587 43.1678C33.1435 43.1651 34.1203 44.098 34.1466 45.2947C34.2019 46.5234 33.254 47.5362 32.0693 47.5922ZM18.9453 35.8807C18.998 37.1068 20.0011 38.0663 21.2122 38.0103C22.397 37.957 23.3422 36.9415 23.2869 35.7155C23.2606 34.5161 22.2864 33.5832 21.099 33.5859C19.8879 33.6392 18.9427 34.6547 18.9453 35.8807ZM21.2216 47.6055C20.0105 47.6615 19.01 46.7019 18.9547 45.4759C18.9521 44.2498 19.8999 43.2343 21.1111 43.181C22.2959 43.1784 23.2727 44.1112 23.299 45.3106C23.3543 46.5367 22.4091 47.5522 21.2216 47.6055Z" fill="white" fill-opacity="0.8"/>
</g>
</g>
</svg>
