<svg width="500" height="500" viewBox="0 0 500 500" fill="none" xmlns="http://www.w3.org/2000/svg">
<path d="M249.789 475.64C382.387 475.64 489.879 413.152 489.879 336.07C489.879 258.988 382.387 196.5 249.789 196.5C117.191 196.5 9.69922 258.988 9.69922 336.07C9.69922 413.152 117.191 475.64 249.789 475.64Z" fill="#F5F5F5"/>
<path d="M310.17 466L465.17 376.54C467.61 375.13 467.61 372.84 465.17 371.43L212.27 225.43C210.897 224.735 209.379 224.373 207.84 224.373C206.301 224.373 204.783 224.735 203.41 225.43L48.4101 314.9C45.9701 316.31 45.9701 318.6 48.4101 320.01L301.31 466C302.683 466.695 304.201 467.057 305.74 467.057C307.279 467.057 308.797 466.695 310.17 466Z" fill="#E0E0E0"/>
<path d="M170.27 434.46C195.554 434.46 216.05 422.627 216.05 408.03C216.05 393.433 195.554 381.6 170.27 381.6C144.987 381.6 124.49 393.433 124.49 408.03C124.49 422.627 144.987 434.46 170.27 434.46Z" fill="#E0E0E0"/>
<path d="M64.75 297.41L71.2 291.81C71.2 291.81 72.04 273.01 67.2 257.18C60.37 234.92 43.76 229.27 38.45 232.33C33.14 235.39 32.78 242.33 44.81 254.04C51.89 261 61.94 276.26 64.75 297.41Z" fill="#5087C9"/>
<g opacity="0.15">
<path opacity="0.15" d="M64.75 297.41L71.2 291.81C71.2 291.81 72.04 273.01 67.2 257.18C60.37 234.92 43.76 229.27 38.45 232.33C33.14 235.39 32.78 242.33 44.81 254.04C51.89 261 61.94 276.26 64.75 297.41Z" fill="black"/>
</g>
<path d="M68 287.16H67.93C67.7937 287.165 67.6607 287.117 67.5597 287.026C67.4587 286.934 67.3977 286.806 67.39 286.67C66.24 265 53.29 243.45 42 235.94C41.9432 235.904 41.8942 235.856 41.8559 235.801C41.8175 235.745 41.7906 235.682 41.7766 235.616C41.7627 235.55 41.762 235.482 41.7746 235.416C41.7872 235.35 41.8128 235.286 41.85 235.23C41.9288 235.118 42.0477 235.041 42.1818 235.015C42.316 234.989 42.4551 235.016 42.57 235.09C54.12 242.73 67.3 264.61 68.45 286.63C68.4536 286.758 68.4096 286.883 68.3266 286.981C68.2435 287.079 68.1272 287.143 68 287.16Z" fill="white"/>
<path d="M57.349 312.05C56.769 313.23 52.689 312.98 51.609 312.99C49.7453 312.985 47.9138 312.503 46.289 311.59C44.4541 310.552 42.9918 308.964 42.109 307.05C41.6331 306.042 41.2353 304.999 40.919 303.93C40.569 302.93 40.229 301.85 39.919 300.82C39.653 299.77 39.1729 298.786 38.509 297.93C37.069 296.3 34.639 296.13 32.509 296.03C30.109 295.92 27.379 295.48 25.929 293.33C24.9125 291.581 24.5012 289.546 24.759 287.54C24.899 285.54 25.329 283.54 25.329 281.54C25.404 280.088 24.9845 278.653 24.139 277.47C23.5401 276.797 22.808 276.256 21.989 275.88C20.2146 275.142 18.5024 274.263 16.869 273.25C15.319 272.1 14.129 270.19 14.569 268.31C14.8257 267.564 15.2284 266.876 15.7538 266.287C16.2792 265.698 16.9167 265.22 17.629 264.88C18.9504 264.199 20.4039 263.814 21.889 263.75C26.589 263.33 31.279 266.04 35.889 265.03C37.6293 264.506 39.333 263.868 40.989 263.12C41.8222 262.752 42.7231 262.561 43.634 262.561C44.545 262.561 45.4459 262.752 46.279 263.12C49.419 264.87 49.179 269.81 52.029 271.99C54.549 273.92 57.619 273.22 60.499 274.54C61.7289 275.155 62.7307 276.147 63.359 277.37C64.5364 279.354 65.3397 281.536 65.729 283.81C66.0525 286.207 66.2261 288.622 66.249 291.04L57.349 312.05Z" fill="#5087C9"/>
<path d="M62.8089 300.5C62.752 300.537 62.6883 300.562 62.6216 300.574C62.5548 300.585 62.4864 300.584 62.4203 300.569C62.3542 300.554 62.2918 300.526 62.2366 300.487C62.1814 300.448 62.1346 300.398 62.0989 300.34C51.3289 283.02 30.7289 269.83 21.2789 268.34C21.2129 268.33 21.1494 268.308 21.0924 268.273C21.0353 268.238 20.9857 268.193 20.9466 268.139C20.9074 268.085 20.8795 268.023 20.8645 267.958C20.8494 267.893 20.8475 267.826 20.8589 267.76C20.8687 267.694 20.8914 267.63 20.9259 267.572C20.9604 267.515 21.0058 267.465 21.0597 267.425C21.1136 267.385 21.1748 267.356 21.2399 267.34C21.3049 267.323 21.3726 267.32 21.4389 267.33C31.0689 268.85 51.9989 282.24 62.9989 299.81C63.0641 299.927 63.0808 300.065 63.0452 300.194C63.0097 300.323 62.9248 300.433 62.8089 300.5Z" fill="white"/>
<path d="M46.0892 281.76C46.0466 281.788 45.9992 281.809 45.9492 281.82C41.2084 283.441 36.6583 285.574 32.3792 288.18C32.2638 288.25 32.1253 288.272 31.9941 288.24C31.8629 288.208 31.7496 288.125 31.6792 288.01C31.6411 287.954 31.615 287.89 31.6024 287.823C31.5898 287.756 31.591 287.687 31.606 287.62C31.621 287.554 31.6494 287.491 31.6895 287.436C31.7296 287.381 31.7806 287.335 31.8392 287.3C36.1949 284.653 40.8255 282.487 45.6492 280.84C45.7136 280.82 45.7813 280.813 45.8484 280.819C45.9154 280.825 45.9806 280.845 46.0401 280.877C46.0997 280.908 46.1523 280.951 46.1951 281.003C46.2378 281.055 46.2698 281.115 46.2892 281.18C46.3217 281.285 46.3198 281.398 46.2839 281.503C46.2479 281.607 46.1798 281.697 46.0892 281.76Z" fill="white"/>
<path d="M337.5 217.95L329.25 213.19L337.5 210.81V217.95Z" fill="#5087C9"/>
<path opacity="0.6" d="M337.5 217.95L329.25 213.19L337.5 210.81V217.95Z" fill="black"/>
<path d="M296.181 234.67V242.26L248.621 214.74V207.15L296.181 234.67Z" fill="#5087C9"/>
<path opacity="0.6" d="M296.181 234.67V242.26L248.621 214.74V207.15L296.181 234.67Z" fill="black"/>
<path d="M244.49 147.61L292.05 175.13V237.05L244.49 209.53V147.61Z" fill="#5087C9"/>
<path opacity="0.55" d="M244.49 147.61L292.05 175.13V237.05L244.49 209.53V147.61Z" fill="black"/>
<path d="M292.051 175.13L345.751 144.13V206.05L292.051 237.05V175.13Z" fill="#5087C9"/>
<path opacity="0.45" d="M292.051 175.13L345.751 144.13V206.05L292.051 237.05V175.13Z" fill="black"/>
<path d="M345.75 144.13L298.18 116.61L244.49 147.61L292.05 175.13L345.75 144.13Z" fill="#5087C9"/>
<path opacity="0.3" d="M345.75 144.13L298.18 116.61L244.49 147.61L292.05 175.13L345.75 144.13Z" fill="black"/>
<path d="M296.18 177.51L341.62 151.27V165.56L296.18 191.8V177.51Z" fill="#5087C9"/>
<path opacity="0.2" d="M296.18 177.51L341.62 151.27V165.56L296.18 191.8V177.51Z" fill="black"/>
<path opacity="0.2" d="M296.18 196.56L341.62 170.32V203.66L296.18 229.91V196.56Z" fill="black"/>
<path d="M296.18 242.26L300.3 239.88V232.29L296.18 234.67V242.26Z" fill="#5087C9"/>
<path opacity="0.55" d="M296.18 242.26L300.3 239.88V232.29L296.18 234.67V242.26Z" fill="black"/>
<path d="M337.5 217.95L341.62 215.57V208.43L337.5 210.81V217.95Z" fill="#5087C9"/>
<path opacity="0.55" d="M337.5 217.95L341.62 215.57V208.43L337.5 210.81V217.95Z" fill="black"/>
<path d="M310.26 172.39C310.26 173.05 312.26 172.44 314.66 171.04L322.36 166.59C324.79 165.19 326.76 163.52 326.76 162.86V161.67L310.26 171.2V172.39Z" fill="#37474F"/>
<path opacity="0.2" d="M341.62 203.66L312.94 186.88L296.18 196.56V229.91L341.62 203.66Z" fill="black"/>
<path d="M311.631 132.64C311.631 132.358 311.601 132.076 311.541 131.8C310.861 128.698 309.032 125.969 306.421 124.16H295.711C293.107 125.975 291.28 128.702 290.591 131.8C290.53 132.076 290.503 132.358 290.511 132.64C290.511 132.69 290.511 132.79 290.511 132.79C290.611 134.27 291.631 135.73 293.591 136.86C295.906 138.034 298.465 138.645 301.061 138.645C303.657 138.645 306.216 138.034 308.531 136.86C310.531 135.73 311.531 134.27 311.601 132.79C311.615 132.741 311.625 132.691 311.631 132.64Z" fill="#263238"/>
<path d="M296 124C293.2 125.62 293.2 128.24 296 129.86C297.575 130.658 299.315 131.075 301.08 131.075C302.846 131.075 304.586 130.658 306.16 129.86C308.96 128.24 308.96 125.62 306.16 124C304.586 123.201 302.846 122.785 301.08 122.785C299.315 122.785 297.575 123.201 296 124Z" fill="#37474F"/>
<path d="M302.53 88.26H299.61V125.8C299.604 125.941 299.641 126.08 299.716 126.2C299.791 126.32 299.901 126.414 300.03 126.47C300.349 126.632 300.702 126.717 301.06 126.717C301.418 126.717 301.771 126.632 302.09 126.47C302.219 126.414 302.329 126.32 302.404 126.2C302.479 126.08 302.516 125.941 302.51 125.8L302.53 88.26Z" fill="#263238"/>
<path d="M321.901 87L312.101 62H290.001L280.191 87C278.791 90.91 280.711 95.14 285.971 98.18C294.281 102.98 307.761 102.98 316.071 98.18C321.371 95.14 323.301 90.91 321.901 87Z" fill="#5087C9"/>
<path opacity="0.4" d="M321.901 87L312.101 62H290.001L280.191 87C278.791 90.91 280.711 95.14 285.971 98.18C294.281 102.98 307.761 102.98 316.071 98.18C321.371 95.14 323.301 90.91 321.901 87Z" fill="white"/>
<path d="M301.071 69.89C307.307 69.89 312.361 66.9709 312.361 63.37C312.361 59.7691 307.307 56.85 301.071 56.85C294.836 56.85 289.781 59.7691 289.781 63.37C289.781 66.9709 294.836 69.89 301.071 69.89Z" fill="#5087C9"/>
<path opacity="0.7" d="M301.071 69.89C307.307 69.89 312.361 66.9709 312.361 63.37C312.361 59.7691 307.307 56.85 301.071 56.85C294.836 56.85 289.781 59.7691 289.781 63.37C289.781 66.9709 294.836 69.89 301.071 69.89Z" fill="white"/>
<path d="M301.07 68.28C298.661 68.3358 296.278 67.7711 294.15 66.64C292.54 65.71 291.65 64.55 291.65 63.36C291.65 62.17 292.54 61.02 294.15 60.09C296.296 59.0118 298.664 58.4502 301.065 58.4502C303.467 58.4502 305.835 59.0118 307.98 60.09C309.6 61.02 310.48 62.18 310.48 63.36C310.48 64.54 309.6 65.71 307.98 66.64C305.856 67.7715 303.476 68.3364 301.07 68.28Z" fill="#5087C9"/>
<path opacity="0.4" d="M301.07 68.28C298.661 68.3358 296.278 67.7711 294.15 66.64C292.54 65.71 291.65 64.55 291.65 63.36C291.65 62.17 292.54 61.02 294.15 60.09C296.296 59.0118 298.664 58.4502 301.065 58.4502C303.467 58.4502 305.835 59.0118 307.98 60.09C309.6 61.02 310.48 62.18 310.48 63.36C310.48 64.54 309.6 65.71 307.98 66.64C305.856 67.7715 303.476 68.3364 301.07 68.28Z" fill="white"/>
<path opacity="0.2" d="M301.07 68.28C298.661 68.3358 296.278 67.7711 294.15 66.64C292.54 65.71 291.65 64.55 291.65 63.36C291.65 62.17 292.54 61.02 294.15 60.09C296.296 59.0118 298.664 58.4502 301.065 58.4502C303.467 58.4502 305.835 59.0118 307.98 60.09C309.6 61.02 310.48 62.18 310.48 63.36C310.48 64.54 309.6 65.71 307.98 66.64C305.856 67.7715 303.476 68.3364 301.07 68.28Z" fill="black"/>
<path opacity="0.1" d="M280.701 149.63C280.701 152.24 276.701 154.36 271.791 154.36C266.881 154.36 262.891 152.24 262.891 149.63C262.891 147.02 266.891 144.9 271.791 144.9C276.691 144.9 280.701 147 280.701 149.63Z" fill="black"/>
<path d="M262.16 134.48C258.68 134.48 255.45 134.48 255.08 136.63C254.71 138.78 256.08 145.29 258.01 146.96C259.94 148.63 264.49 147.96 264.49 147.96V145.84C263.015 145.969 261.528 145.854 260.09 145.5C258.57 144.94 257.5 138.42 257.5 137.66C257.5 136.9 262.5 137.06 262.5 137.06L262.16 134.48Z" fill="#E6E6E6"/>
<path d="M261.821 131.18C262.051 130.18 263.011 129.28 264.711 128.55C269.284 126.845 274.318 126.845 278.891 128.55C280.591 129.29 281.541 130.22 281.771 131.19H281.831C282.491 137.52 281.351 144.86 279.091 148.92C279.093 148.947 279.093 148.973 279.091 149V149.07C278.638 149.803 278 150.403 277.241 150.81C275.574 151.656 273.73 152.097 271.861 152.097C269.991 152.097 268.148 151.656 266.481 150.81C265.719 150.402 265.08 149.798 264.631 149.06V149.01V148.91C262.381 144.85 261.261 137.51 261.931 131.18H261.821Z" fill="#F5F5F5"/>
<path d="M264.71 128.55C260.79 130.25 260.79 133 264.71 134.71C269.287 136.41 274.322 136.41 278.9 134.71C282.82 133.01 282.82 130.25 278.9 128.55C274.324 126.842 269.285 126.842 264.71 128.55Z" fill="#FAFAFA"/>
<path d="M266.081 129.62C262.921 130.73 262.911 132.53 266.081 133.62C269.816 134.736 273.796 134.736 277.531 133.62C280.691 132.51 280.691 130.71 277.531 129.62C273.796 128.504 269.816 128.504 266.081 129.62Z" fill="#E6E6E6"/>
<path d="M266.07 132.05C265.509 132.237 264.977 132.503 264.49 132.84C264.974 133.184 265.507 133.454 266.07 133.64C269.805 134.756 273.785 134.756 277.52 133.64C278.083 133.457 278.616 133.191 279.1 132.85C278.618 132.504 278.085 132.234 277.52 132.05C273.785 130.934 269.805 130.934 266.07 132.05Z" fill="#37474F"/>
<path d="M270.26 125.89C267.11 123.45 265.41 119.35 267.43 115.26C269.45 111.17 273.3 108.41 271.37 105.41C271.37 105.41 275.72 107.6 274.64 111.97C273.2 117.76 268.34 118.72 270.26 125.89Z" fill="#E0E0E0"/>
<path d="M272.581 125.89C272.581 125.89 271.581 122.18 273.261 119.72C274.941 117.26 277.261 115.9 277.321 113.1C277.321 113.1 279.691 115.95 278.041 119.1C276.391 122.25 273.211 122.55 272.581 125.89Z" fill="#E0E0E0"/>
<path d="M288 159.38L287.94 159.24C287.923 159.2 287.899 159.163 287.87 159.13C287.758 158.958 287.612 158.812 287.44 158.7V159.14L287.07 158.92V158.48C286.5 158.235 285.883 158.118 285.263 158.137C284.642 158.156 284.034 158.311 283.48 158.59C283.146 158.755 282.883 159.036 282.74 159.38C282.744 159.406 282.744 159.434 282.74 159.46C282.73 159.533 282.73 159.607 282.74 159.68V160.55C282.739 160.762 282.806 160.968 282.93 161.14C283.089 161.349 283.29 161.523 283.52 161.65C284.106 161.946 284.753 162.1 285.41 162.1C286.066 162.1 286.714 161.946 287.3 161.65C287.517 161.553 287.705 161.4 287.844 161.207C287.983 161.014 288.068 160.787 288.09 160.55V159.68C288.076 159.576 288.045 159.475 288 159.38Z" fill="#F0F0F0"/>
<path d="M286.19 158.21C285.263 158.025 284.301 158.159 283.46 158.59C283.126 158.755 282.863 159.036 282.72 159.38C282.725 159.406 282.725 159.433 282.72 159.46C282.71 159.533 282.71 159.607 282.72 159.68V160.55C282.72 160.762 282.786 160.968 282.91 161.14C283.069 161.349 283.27 161.523 283.5 161.65C284.343 162.077 285.305 162.208 286.23 162.02L286.19 158.21Z" fill="#E6E6E6"/>
<path d="M283.46 158.59C282.46 159.15 282.46 160.05 283.28 160.66L287.05 158.48C286.48 158.235 285.863 158.118 285.243 158.137C284.622 158.156 284.014 158.311 283.46 158.59Z" fill="#F5F5F5"/>
<path d="M283.28 160.43C283.28 160.43 282.28 159.63 283.4 158.63C283.206 158.709 283.038 158.841 282.915 159.011C282.793 159.181 282.722 159.383 282.709 159.592C282.696 159.801 282.743 160.01 282.844 160.194C282.945 160.377 283.096 160.529 283.28 160.63L287.05 158.45L283.28 160.43Z" fill="white"/>
<path d="M287.42 158.7L283.66 160.88C284.229 161.125 284.844 161.242 285.462 161.223C286.081 161.204 286.688 161.049 287.24 160.77C288.23 160.21 288.29 159.31 287.42 158.7Z" fill="#F5F5F5"/>
<path d="M283.66 160.88C284.229 161.125 284.844 161.242 285.462 161.223C286.081 161.204 286.688 161.049 287.24 160.77C287.35 160.711 287.454 160.64 287.55 160.56C287.023 160.845 286.442 161.017 285.845 161.065C285.247 161.113 284.646 161.037 284.08 160.84L287.42 158.7L283.66 160.88Z" fill="white"/>
<path d="M287.049 158.92L283.279 161.11V160.66L287.049 158.48V158.92Z" fill="#E0E0E0"/>
<path opacity="0.2" d="M283.659 160.88V161.32L283.279 161.11L283.659 160.88Z" fill="black"/>
<path d="M291.369 163.89L291.299 163.75C291.285 163.71 291.265 163.673 291.239 163.64C291.125 163.47 290.979 163.324 290.809 163.21V163.65L290.429 163.43V163C289.86 162.755 289.245 162.638 288.627 162.657C288.008 162.676 287.401 162.831 286.849 163.11C286.513 163.272 286.249 163.554 286.109 163.9C286.109 163.9 286.109 163.95 286.109 163.98C286.099 164.053 286.099 164.127 286.109 164.2V165.08C286.113 165.29 286.183 165.492 286.309 165.66C286.465 165.872 286.667 166.046 286.899 166.17C287.485 166.466 288.132 166.62 288.789 166.62C289.446 166.62 290.093 166.466 290.679 166.17C290.894 166.073 291.081 165.922 291.219 165.73C291.358 165.539 291.444 165.315 291.469 165.08V164.2C291.453 164.092 291.419 163.987 291.369 163.89Z" fill="#F0F0F0"/>
<path d="M289.579 162.72C288.652 162.535 287.69 162.669 286.849 163.1C286.513 163.262 286.249 163.544 286.109 163.89C286.109 163.89 286.109 163.94 286.109 163.97C286.099 164.043 286.099 164.117 286.109 164.19V165.07C286.113 165.279 286.183 165.482 286.309 165.65C286.465 165.861 286.667 166.036 286.899 166.16C287.741 166.587 288.703 166.718 289.629 166.53L289.579 162.72Z" fill="#E6E6E6"/>
<path d="M286.85 163.1C285.85 163.66 285.85 164.56 286.67 165.17L290.43 162.99C289.862 162.745 289.247 162.628 288.628 162.647C288.01 162.666 287.403 162.821 286.85 163.1Z" fill="#F5F5F5"/>
<path d="M286.669 164.94C286.669 164.94 285.669 164.14 286.779 163.14C286.585 163.22 286.418 163.353 286.297 163.524C286.175 163.694 286.105 163.896 286.093 164.105C286.082 164.314 286.13 164.523 286.232 164.706C286.334 164.889 286.485 165.039 286.669 165.14L290.429 162.96L286.669 164.94Z" fill="white"/>
<path d="M290.809 163.21L287.049 165.39C287.617 165.635 288.232 165.752 288.851 165.733C289.47 165.714 290.076 165.559 290.629 165.28C291.609 164.72 291.669 163.82 290.809 163.21Z" fill="#F5F5F5"/>
<path d="M287.049 165.39C287.617 165.635 288.232 165.752 288.851 165.733C289.47 165.714 290.076 165.559 290.629 165.28C290.739 165.221 290.843 165.15 290.939 165.07C290.412 165.355 289.831 165.527 289.233 165.575C288.636 165.623 288.035 165.547 287.469 165.35L290.809 163.21L287.049 165.39Z" fill="white"/>
<path d="M290.43 163.43L286.67 165.62V165.17L290.43 162.99V163.43Z" fill="#E0E0E0"/>
<path opacity="0.2" d="M287.05 165.39V165.84L286.67 165.62L287.05 165.39Z" fill="black"/>
<path opacity="0.1" d="M306.631 162.13C305.019 162.949 303.238 163.375 301.431 163.375C299.623 163.375 297.842 162.949 296.231 162.13C293.361 160.47 293.361 157.78 296.231 156.13C297.842 155.311 299.623 154.885 301.431 154.885C303.238 154.885 305.019 155.311 306.631 156.13C309.501 157.78 309.501 160.47 306.631 162.13Z" fill="black"/>
<path d="M295.392 148C295.443 147.444 295.641 146.912 295.966 146.459C296.292 146.005 296.732 145.647 297.242 145.42C298.628 144.715 300.161 144.347 301.717 144.347C303.272 144.347 304.805 144.715 306.192 145.42C306.694 145.652 307.126 146.013 307.444 146.466C307.762 146.919 307.954 147.449 308.002 148V158.75C307.95 159.306 307.752 159.838 307.427 160.291C307.101 160.744 306.661 161.103 306.152 161.33C304.765 162.035 303.232 162.403 301.677 162.403C300.121 162.403 298.588 162.035 297.202 161.33C296.692 161.103 296.252 160.744 295.926 160.291C295.601 159.838 295.403 159.306 295.352 158.75L295.392 148Z" fill="#5087C9"/>
<path opacity="0.4" d="M297.82 145.09V161.6C297.62 161.5 297.43 161.41 297.24 161.3C296.875 161.092 296.539 160.836 296.24 160.54V146.15C296.539 145.854 296.875 145.598 297.24 145.39C297.428 145.28 297.622 145.18 297.82 145.09Z" fill="white"/>
<path opacity="0.4" d="M299.48 162.13C299.172 162.068 298.867 161.984 298.57 161.88V144.81C298.867 144.706 299.172 144.622 299.48 144.56V162.13Z" fill="white"/>
<path opacity="0.1" d="M295.502 147.3C295.898 146.76 296.41 146.315 297.002 146C298.377 145.304 299.889 144.917 301.429 144.867C302.97 144.817 304.504 145.105 305.922 145.71V145.21L306.222 145.37C306.725 145.611 307.156 145.981 307.469 146.443C307.781 146.906 307.965 147.443 308.002 148V150.47V155.21V158.75C307.95 159.306 307.752 159.838 307.427 160.291C307.101 160.744 306.661 161.103 306.152 161.33C304.765 162.035 303.232 162.403 301.677 162.403C300.121 162.403 298.588 162.035 297.202 161.33C296.781 161.099 296.399 160.802 296.072 160.45C297.252 161.55 300.182 162.15 302.352 161.73C304.522 161.31 305.852 159.91 305.852 158.92V157.97C304.493 158.65 302.991 158.993 301.472 158.97V154.15C302.983 154.205 304.485 153.896 305.852 153.25V151.85C304.432 152.451 302.899 152.735 301.358 152.684C299.818 152.632 298.307 152.245 296.932 151.55C296.287 151.21 295.742 150.706 295.352 150.09V148C295.363 147.76 295.413 147.524 295.502 147.3Z" fill="black"/>
<path opacity="0.1" d="M307.001 159.17V145.94C307.313 146.176 307.57 146.477 307.755 146.823C307.94 147.168 308.047 147.549 308.071 147.94V158.69C308.019 159.246 307.821 159.778 307.496 160.231C307.17 160.684 306.73 161.043 306.221 161.27C305.47 161.689 304.656 161.982 303.811 162.14C306.161 161.52 307.001 159.9 307.001 159.17Z" fill="black"/>
<path d="M295 145.08C295.057 144.486 295.273 143.918 295.625 143.436C295.977 142.954 296.452 142.576 297 142.34C298.471 141.596 300.096 141.208 301.745 141.208C303.394 141.208 305.019 141.596 306.49 142.34C307.038 142.576 307.513 142.954 307.865 143.436C308.217 143.918 308.433 144.486 308.49 145.08V148.08C308.435 148.675 308.22 149.243 307.868 149.726C307.516 150.208 307.04 150.586 306.49 150.82C305.019 151.564 303.394 151.952 301.745 151.952C300.096 151.952 298.471 151.564 297 150.82C296.45 150.586 295.974 150.208 295.622 149.726C295.27 149.243 295.055 148.675 295 148.08V145.08Z" fill="#E0E0E0"/>
<g opacity="0.2">
<path opacity="0.2" d="M295.172 144.81H294.852V149.43H295.172V144.81Z" fill="black"/>
<path opacity="0.2" d="M295.912 146.05H295.592V150.7H295.912V146.05Z" fill="black"/>
<path opacity="0.2" d="M297.021 146.91H296.701V151.58H297.021V146.91Z" fill="black"/>
<path opacity="0.2" d="M298.302 147.45H297.982V152.15H298.302V147.45Z" fill="black"/>
<path opacity="0.2" d="M299.711 147.8H299.391V152.52H299.711V147.8Z" fill="black"/>
<path opacity="0.2" d="M301.191 147.98H300.871V152.73H301.191V147.98Z" fill="black"/>
<path opacity="0.2" d="M302.701 147.98H302.381V152.75H302.701V147.98Z" fill="black"/>
<path opacity="0.2" d="M304.181 147.78H303.861V152.58H304.181V147.78Z" fill="black"/>
<path opacity="0.2" d="M305.562 147.38H305.242V152.2H305.562V147.38Z" fill="black"/>
<path opacity="0.2" d="M306.812 146.77H306.492V151.62H306.812V146.77Z" fill="black"/>
<path opacity="0.2" d="M307.802 145.91H307.482V150.78H307.802V145.91Z" fill="black"/>
<path opacity="0.2" d="M308.582 144.53H308.262V149.43H308.582V144.53Z" fill="black"/>
</g>
<path opacity="0.1" d="M300.111 151.81C303.431 151.81 305.181 150.75 305.711 149.87C306.115 148.879 306.279 147.807 306.191 146.74C306.191 146.74 306.561 143.95 306.491 143.95C306.421 143.95 307.281 143.76 307.931 143.62C308.244 144.043 308.415 144.554 308.421 145.08V148.08C308.366 148.675 308.151 149.243 307.799 149.726C307.447 150.208 306.971 150.586 306.421 150.82C304.476 151.81 302.266 152.156 300.111 151.81Z" fill="black"/>
<path d="M306.461 147.82C304.99 148.564 303.364 148.952 301.716 148.952C300.067 148.952 298.442 148.564 296.971 147.82C294.351 146.31 294.351 143.82 296.971 142.34C298.442 141.596 300.067 141.208 301.716 141.208C303.364 141.208 304.99 141.596 306.461 142.34C309.081 143.85 309.081 146.31 306.461 147.82Z" fill="#EBEBEB"/>
<path d="M296.61 147.59C294.36 146.07 294.48 143.78 296.97 142.34C298.388 141.584 299.973 141.196 301.58 141.21C302.44 141.341 303.27 141.625 304.03 142.05C306.3 143.34 306.3 145.92 304.03 147.22C302.885 147.789 301.635 148.116 300.359 148.18C299.082 148.244 297.805 148.043 296.61 147.59Z" fill="#F5F5F5"/>
<path opacity="0.1" d="M305.821 161C304.526 161.564 303.128 161.855 301.716 161.855C300.303 161.855 298.906 161.564 297.611 161C295.341 159.86 295.341 158 297.611 156.88C298.906 156.316 300.303 156.025 301.716 156.025C303.128 156.025 304.526 156.316 305.821 156.88C308.091 158 308.091 159.87 305.821 161Z" fill="black"/>
<path d="M308 150.75C307.948 151.307 307.75 151.84 307.425 152.295C307.1 152.75 306.66 153.111 306.15 153.34C304.77 154.067 303.229 154.432 301.67 154.4V159.14C303.229 159.172 304.77 158.807 306.15 158.08C306.66 157.851 307.1 157.49 307.425 157.035C307.75 156.58 307.948 156.047 308 155.49V150.75Z" fill="white"/>
<path d="M307.911 146.57C306.127 148.065 303.833 148.81 301.511 148.65C297.301 148.53 295.611 146.23 295.391 145.52C295.279 145.099 295.273 144.657 295.372 144.234C295.472 143.81 295.674 143.417 295.961 143.09C295.673 143.34 295.44 143.646 295.277 143.991C295.113 144.335 295.023 144.709 295.011 145.09V148.09C295.011 148.34 294.881 149.21 296.241 150.33C295.802 149.831 295.523 149.21 295.441 148.55V146.55C295.441 146.55 296.931 149.04 301.511 149.04C306.091 149.04 307.681 146.94 307.911 146.57Z" fill="white"/>
<path d="M138 404.13C137.81 405.299 137.81 406.491 138 407.66C138.73 409.93 142.36 413.03 148 413.56C153.21 414.05 157.85 412.92 161.36 410.34C164.87 407.76 169.98 402.86 172.75 400.66C176.05 398.03 178.75 395.72 179.42 394.66C180.09 393.6 179.66 391.05 179.66 391.05L138 404.13Z" fill="#263238"/>
<path d="M160.71 408.5C164.1 405.64 173.39 398.16 176.56 395.38C179.73 392.6 181.28 390.29 177.28 388.08C175.102 386.911 172.645 386.361 170.177 386.492C167.708 386.622 165.323 387.428 163.28 388.82C158.91 391.89 141.82 403.41 141.82 403.41L160.71 408.5Z" fill="#37474F"/>
<path d="M146.649 396C151.789 396.07 154.799 397.9 158.109 401.25C159.069 402.177 159.802 403.312 160.253 404.567C160.704 405.822 160.86 407.165 160.709 408.49C158.695 409.896 156.41 410.867 153.999 411.338C151.588 411.81 149.105 411.773 146.709 411.23C139.029 409.59 137.939 404.7 137.939 404.7C137.939 404.7 138.739 397.14 146.649 396Z" fill="#455A64"/>
<path d="M158.819 418C158.628 419.172 158.628 420.368 158.819 421.54C159.559 423.81 163.189 426.91 168.819 427.44C174.019 427.92 178.669 426.79 182.179 424.22C185.689 421.65 190.789 416.74 193.559 414.53C196.869 411.91 199.559 409.59 200.229 408.53C200.899 407.47 200.469 404.92 200.469 404.92L158.819 418Z" fill="#263238"/>
<path d="M181.55 422.36C184.94 419.5 194.23 412.02 197.4 409.24C200.57 406.46 202.12 404.15 198.11 401.93C195.931 400.763 193.474 400.216 191.006 400.349C188.537 400.481 186.152 401.287 184.11 402.68C179.75 405.74 162.65 417.26 162.65 417.26L181.55 422.36Z" fill="#37474F"/>
<path d="M167.48 409.86C172.62 409.94 175.64 411.77 178.95 415.11C179.909 416.039 180.643 417.175 181.093 418.432C181.544 419.689 181.7 421.033 181.55 422.36C179.534 423.764 177.248 424.732 174.838 425.202C172.427 425.672 169.945 425.634 167.55 425.09C159.86 423.46 158.77 418.56 158.77 418.56C158.77 418.56 159.58 411 167.48 409.86Z" fill="#455A64"/>
<path d="M65.9994 318.05L59.9994 314.58C59.0864 313.985 58.3264 313.183 57.7809 312.24C57.2354 311.297 56.9197 310.238 56.8594 309.15V215.49C56.9212 214.404 57.2377 213.347 57.7831 212.406C58.3286 211.464 59.0877 210.664 59.9994 210.07L203.779 127C204.749 126.507 205.822 126.25 206.909 126.25C207.997 126.25 209.07 126.507 210.039 127L216.099 130.47C217.011 131.063 217.769 131.864 218.313 132.805C218.857 133.747 219.171 134.804 219.229 135.89V229.55C219.174 230.641 218.862 231.703 218.318 232.65C217.774 233.597 217.014 234.403 216.099 235L72.2594 318.05C71.2875 318.536 70.2159 318.789 69.1294 318.789C68.0428 318.789 66.9712 318.536 65.9994 318.05Z" fill="#5087C9"/>
<path opacity="0.3" d="M65.9994 318.05L59.9994 314.58C59.0864 313.985 58.3264 313.183 57.7809 312.24C57.2354 311.297 56.9197 310.238 56.8594 309.15V215.49C56.9212 214.404 57.2377 213.347 57.7831 212.406C58.3286 211.464 59.0877 210.664 59.9994 210.07L203.779 127C204.749 126.507 205.822 126.25 206.909 126.25C207.997 126.25 209.07 126.507 210.039 127L216.099 130.47C217.011 131.063 217.769 131.864 218.313 132.805C218.857 133.747 219.171 134.804 219.229 135.89V229.55C219.174 230.641 218.862 231.703 218.318 232.65C217.774 233.597 217.014 234.403 216.099 235L72.2594 318.05C71.2875 318.536 70.2159 318.789 69.1294 318.789C68.0428 318.789 66.9712 318.536 65.9994 318.05Z" fill="black"/>
<path d="M219.231 135.89V229.55C219.176 230.641 218.863 231.703 218.319 232.65C217.775 233.597 217.015 234.403 216.101 235L72.2609 318.05C70.5309 319.05 69.1309 318.23 69.1309 316.24V222.58C69.1893 221.493 69.5031 220.434 70.0469 219.491C70.5907 218.548 71.3492 217.746 72.2609 217.15L216.101 134.08C217.831 133.08 219.231 133.89 219.231 135.89Z" fill="#5087C9"/>
<path opacity="0.45" d="M219.231 135.89V229.55C219.176 230.641 218.863 231.703 218.319 232.65C217.775 233.597 217.015 234.403 216.101 235L72.2609 318.05C70.5309 319.05 69.1309 318.23 69.1309 316.24V222.58C69.1893 221.493 69.5031 220.434 70.0469 219.491C70.5907 218.548 71.3492 217.746 72.2609 217.15L216.101 134.08C217.831 133.08 219.231 133.89 219.231 135.89Z" fill="black"/>
<path d="M71.5403 318.38C70.6398 318.698 69.6838 318.828 68.731 318.763C67.7783 318.698 66.849 318.438 66.0003 318L59.9403 314.54C59.0311 313.943 58.275 313.14 57.733 312.197C57.191 311.254 56.8784 310.196 56.8203 309.11V215.49C56.8534 214.402 57.1668 213.341 57.7303 212.41L70.0503 219.49C69.4868 220.421 69.1734 221.482 69.1403 222.57V316.23C69.1403 317.94 70.1603 318.78 71.5403 318.38Z" fill="#5087C9"/>
<path opacity="0.55" d="M71.5403 318.38C70.6398 318.698 69.6838 318.828 68.731 318.763C67.7783 318.698 66.849 318.438 66.0003 318L59.9403 314.54C59.0311 313.943 58.275 313.14 57.733 312.197C57.191 311.254 56.8784 310.196 56.8203 309.11V215.49C56.8534 214.402 57.1668 213.341 57.7303 212.41L70.0503 219.49C69.4868 220.421 69.1734 221.482 69.1403 222.57V316.23C69.1403 317.94 70.1603 318.78 71.5403 318.38Z" fill="black"/>
<path d="M320.3 417.36L305.8 409C305.315 408.753 304.779 408.625 304.235 408.625C303.691 408.625 303.154 408.753 302.67 409L288.17 417.37C287.704 417.656 287.321 418.06 287.06 418.54C287.008 418.633 286.965 418.73 286.93 418.83C286.73 419.218 286.617 419.644 286.6 420.08V443.6C286.63 444.117 286.776 444.622 287.026 445.075C287.277 445.528 287.627 445.92 288.05 446.22C288.087 446.253 288.127 446.283 288.17 446.31L302.67 454.69C302.72 454.69 302.8 454.69 302.85 454.76C303.026 454.846 303.21 454.917 303.4 454.97C303.672 455.03 303.95 455.06 304.23 455.06C304.775 455.068 305.315 454.941 305.8 454.69L320.3 446.31C320.755 446.013 321.135 445.613 321.408 445.142C321.68 444.671 321.839 444.143 321.87 443.6V420.07C321.839 419.527 321.68 418.999 321.408 418.528C321.135 418.057 320.755 417.657 320.3 417.36Z" fill="#455A64"/>
<path d="M305.8 454.69L320.3 446.31C320.756 446.013 321.136 445.613 321.409 445.142C321.681 444.671 321.84 444.143 321.87 443.6V420.07C321.87 419.07 321.16 418.67 320.3 419.17L305.8 427.54C305.345 427.837 304.965 428.237 304.692 428.708C304.42 429.179 304.261 429.707 304.23 430.25V453.78C304.23 454.78 304.93 455.18 305.8 454.69Z" fill="#37474F"/>
<path d="M452.94 340.74L438.44 332.37C437.955 332.123 437.419 331.995 436.875 331.995C436.331 331.995 435.795 332.123 435.31 332.37L420.8 340.74C420.34 341.03 419.961 341.433 419.7 341.91C419.647 342.005 419.603 342.106 419.57 342.21C419.369 342.594 419.257 343.017 419.24 343.45V368.11C419.27 368.627 419.416 369.132 419.667 369.585C419.918 370.038 420.268 370.43 420.69 370.73C420.724 370.763 420.761 370.793 420.8 370.82L435.31 378.07C435.36 378.07 435.43 378.07 435.49 378.14C435.667 378.226 435.851 378.297 436.04 378.35C436.313 378.41 436.591 378.44 436.87 378.44C437.417 378.453 437.957 378.325 438.44 378.07L452.94 369.69C453.392 369.394 453.769 368.997 454.039 368.53C454.31 368.063 454.468 367.539 454.5 367V343.45C454.47 342.908 454.314 342.38 454.043 341.909C453.772 341.439 453.394 341.038 452.94 340.74Z" fill="#455A64"/>
<path d="M438.439 378.07L452.939 369.69C453.391 369.394 453.768 368.997 454.039 368.53C454.309 368.063 454.467 367.539 454.499 367V343.45C454.499 342.45 453.789 342.05 452.929 342.55L438.429 350.92C437.974 351.217 437.594 351.617 437.321 352.088C437.049 352.559 436.89 353.087 436.859 353.63V377.16C436.869 378.16 437.569 378.57 438.439 378.07Z" fill="#37474F"/>
<path d="M219.001 199.29L75.3911 282.29C73.5656 283.477 72.0462 285.079 70.9567 286.964C69.8671 288.85 69.2382 290.966 69.1211 293.14V299.09C69.2478 301.258 69.8822 303.366 70.973 305.243C72.0639 307.121 73.5807 308.716 75.4011 309.9L298.001 438.4C299.942 439.386 302.089 439.9 304.266 439.9C306.443 439.9 308.59 439.386 310.531 438.4L454.151 355.4C455.974 354.211 457.49 352.608 458.578 350.723C459.665 348.838 460.294 346.723 460.411 344.55V338.6C460.294 336.427 459.665 334.312 458.578 332.427C457.49 330.542 455.974 328.94 454.151 327.75L231.541 199.29C229.599 198.302 227.45 197.787 225.271 197.787C223.092 197.787 220.943 198.302 219.001 199.29Z" fill="#455A64"/>
<path d="M460.38 338.65V344.59C460.265 346.764 459.638 348.88 458.55 350.765C457.462 352.65 455.944 354.252 454.12 355.44L310.5 438.44C308.575 439.462 306.42 439.975 304.24 439.93V419.48C306.419 419.528 308.574 419.019 310.5 418L454.12 335C457.34 333.12 457.56 330.18 454.75 328.17C456.401 329.396 457.761 330.971 458.734 332.782C459.707 334.594 460.269 336.597 460.38 338.65Z" fill="#263238"/>
<path d="M75.4009 289.49C72.1109 287.59 71.9509 284.57 74.9209 282.58C73.2318 283.79 71.8351 285.363 70.8332 287.184C69.8313 289.004 69.2496 291.026 69.1309 293.1V299.05C69.2504 301.224 69.8803 303.339 70.9696 305.224C72.0589 307.109 73.577 308.711 75.4009 309.9L298.001 438.4C299.929 439.426 302.087 439.943 304.271 439.9V419.48C302.089 419.529 299.93 419.02 298.001 418L75.4009 289.49Z" fill="#37474F"/>
<path d="M219.001 165.41L75.3911 248.41C73.5673 249.599 72.0492 251.201 70.9598 253.086C69.8705 254.971 69.2406 257.086 69.1211 259.26V271.9C69.2406 274.074 69.8705 276.189 70.9598 278.074C72.0492 279.959 73.5673 281.561 75.3911 282.75L298.001 411.25C299.942 412.236 302.089 412.75 304.266 412.75C306.443 412.75 308.59 412.236 310.531 411.25L454.151 328.25C455.975 327.062 457.493 325.461 458.581 323.575C459.669 321.69 460.296 319.574 460.411 317.4V304.76C460.294 302.587 459.665 300.472 458.578 298.587C457.49 296.702 455.974 295.1 454.151 293.91L231.541 165.41C229.599 164.422 227.45 163.907 225.271 163.907C223.092 163.907 220.943 164.422 219.001 165.41Z" fill="#5087C9"/>
<path opacity="0.8" d="M75.3899 255.61L298 384.11C299.941 385.096 302.088 385.611 304.265 385.611C306.442 385.611 308.589 385.096 310.53 384.11L454.15 301.16C457.61 299.16 457.61 295.92 454.15 293.92L231.54 165.42C229.599 164.434 227.452 163.92 225.275 163.92C223.098 163.92 220.951 164.434 219.01 165.42L75.3899 248.42C71.9299 250.38 71.9299 253.62 75.3899 255.61Z" fill="white"/>
<path opacity="0.5" d="M460.38 304.77V317.45C460.263 319.623 459.635 321.738 458.547 323.623C457.459 325.508 455.943 327.111 454.12 328.3L310.5 411.25C308.575 412.275 306.421 412.791 304.24 412.75V385.6C306.42 385.645 308.575 385.132 310.5 384.11L454.12 301.11C457.34 299.23 457.56 296.29 454.75 294.28C456.402 295.507 457.763 297.084 458.736 298.897C459.709 300.71 460.27 302.715 460.38 304.77Z" fill="white"/>
<path opacity="0.6" d="M75.4009 255.61C72.1109 253.71 71.9509 250.7 74.9209 248.7C73.2318 249.91 71.8351 251.483 70.8332 253.304C69.8313 255.124 69.2496 257.146 69.1309 259.22V271.9C69.2504 274.074 69.8803 276.189 70.9696 278.074C72.0589 279.959 73.577 281.561 75.4009 282.75L298.001 411.25C299.929 412.276 302.087 412.793 304.271 412.75V385.6C302.088 385.646 299.93 385.133 298.001 384.11L75.4009 255.61Z" fill="white"/>
<path d="M253.16 191.7C255.16 184.26 252.16 180.37 248.08 173.46C244 166.55 234.45 153.18 230.54 147.46C226.63 141.74 222.28 136.11 219.94 135.32C217.6 134.53 216.02 133.59 209.83 135.83C203.64 138.07 190.78 145.7 174.83 154.47C158.88 163.24 152.39 167.28 151.41 175.87C150.8 181.18 178.82 227.94 185.64 228.64C200.79 230.19 202.07 227.31 210.51 222.22C224.59 213.74 234.66 207.47 244.41 200.86C248.86 197.86 252.21 195.15 253.16 191.7Z" fill="#F0F0F0"/>
<path d="M158.81 194.61C162.52 200.61 173.33 216.95 177.08 221.78C180.83 226.61 187.35 232.1 188.87 225.91C190.39 219.72 184.58 211.91 180.64 205.76C176.7 199.61 165.7 185.13 162.13 180.4C158.56 175.67 152.61 171.05 151.21 176.58C149.81 182.11 155.11 188.59 158.81 194.61Z" fill="#E0E0E0"/>
<path d="M182.94 232.83C184.94 225.39 181.94 221.5 177.86 214.59C173.78 207.68 164.23 194.31 160.32 188.59C156.41 182.87 152.06 177.24 149.72 176.45C147.38 175.66 145.8 174.72 139.61 176.96C133.42 179.2 120.56 186.83 104.61 195.6C88.6603 204.37 77.4703 211.08 76.4903 219.67C75.8803 224.98 103.9 271.75 110.72 272.44C125.87 274 131.86 268.44 140.3 263.35C154.37 254.87 164.44 248.6 174.19 241.99C178.64 239 182 236.28 182.94 232.83Z" fill="#F0F0F0"/>
<path d="M83.9005 238.42C87.6005 244.42 98.4105 260.75 102.16 265.59C105.91 270.43 112.43 275.9 113.95 269.71C115.47 263.52 109.66 255.71 105.73 249.56C101.8 243.41 90.7305 228.93 87.2105 224.2C83.6905 219.47 77.6905 214.85 76.2905 220.39C74.8905 225.93 80.1905 232.4 83.9005 238.42Z" fill="#E0E0E0"/>
<path d="M176.09 239.8C178.68 249.34 179.78 258.92 192.3 269.8C204.82 280.68 263.75 311.85 263.75 311.85L302.13 267.42L244.93 231.96L225.26 223.86L176.09 239.8Z" fill="#455A64"/>
<path d="M139.359 291V338.44L304.979 434.44V384.86C302.8 384.901 300.646 384.388 298.719 383.37L139.359 291Z" fill="#5087C9"/>
<path opacity="0.3" d="M139.359 291V338.44L304.979 434.44V384.86C302.8 384.901 300.646 384.388 298.719 383.37L139.359 291Z" fill="black"/>
<path d="M454.13 300.24C457.35 298.36 457.57 295.43 454.76 293.42C456.404 294.643 457.759 296.212 458.73 298.016C459.701 299.82 460.264 301.815 460.38 303.86V344.07L305 434.42V384.86C307.179 384.901 309.333 384.388 311.26 383.37L454.13 300.24Z" fill="#5087C9"/>
<path opacity="0.45" d="M454.13 300.24C457.35 298.36 457.57 295.43 454.76 293.42C456.404 294.643 457.759 296.212 458.73 298.016C459.701 299.82 460.264 301.815 460.38 303.86V344.07L305 434.42V384.86C307.179 384.901 309.333 384.388 311.26 383.37L454.13 300.24Z" fill="black"/>
<path d="M454.129 293L294.759 200.62L244.519 229.89C226.399 227.25 192.709 249.36 184.889 264.32L139.359 291L298.719 383.39C300.66 384.372 302.805 384.883 304.979 384.883C307.154 384.883 309.299 384.372 311.239 383.39L454.129 300.26C457.579 298.24 457.579 295 454.129 293Z" fill="#5087C9"/>
<path opacity="0.2" d="M454.129 293L294.759 200.62L244.519 229.89C226.399 227.25 192.709 249.36 184.889 264.32L139.359 291L298.719 383.39C300.66 384.372 302.805 384.883 304.979 384.883C307.154 384.883 309.299 384.372 311.239 383.39L454.129 300.26C457.579 298.24 457.579 295 454.129 293Z" fill="black"/>
<path opacity="0.1" d="M170.309 273.63C174.549 279.1 183.729 282.48 190.169 284.18C194.411 285.303 198.782 285.861 203.169 285.84C202.975 289.368 202.302 292.853 201.169 296.2C200.289 298.77 196.859 302.87 200.759 304.1C203.759 305.04 208.969 303.56 212.039 303.1C215.963 302.51 219.852 301.709 223.689 300.7C225.789 300.15 228.019 299.44 229.329 297.7C230.799 295.7 230.669 293.06 231.049 290.63C231.399 288.35 232.739 285.7 235.289 285.46C232.519 283.9 228.439 283.1 225.349 282.06C220.709 280.5 216.009 279.11 211.349 277.54C201.896 274.347 192.533 270.907 183.259 267.22C182.609 266.96 181.929 266.69 181.259 266.44L169.939 273.07C170.049 273.26 170.169 273.45 170.309 273.63Z" fill="black"/>
<path opacity="0.1" d="M454.13 293L294.76 200.62L244.52 229.89C258.17 238.57 271.52 243.55 285.44 251.55C292.15 255.41 299.93 261.71 316.93 273.31C322.51 277.11 329.18 281.53 336.23 280.83C341.57 280.3 346.23 277.09 351.37 275.51C352.47 275.111 353.641 274.941 354.81 275.01C359.9 275.54 359.53 281.66 359.61 285.36C359.734 291.082 358.127 296.707 355 301.5C354.276 302.518 353.771 303.676 353.52 304.9C352.88 308.72 354.76 311.63 358.4 313.23C362.04 314.83 401.12 331.09 408.08 327.08L454.08 300.24C457.57 298.25 457.57 295 454.13 293Z" fill="black"/>
<path opacity="0.1" d="M303.22 327.73C300.347 325.99 297.517 324.183 294.73 322.31C293.64 321.58 288.73 318.36 287.47 317.26C291.1 318.86 294.69 320.52 298.27 322.21C302.2 324.07 306.17 325.84 310.21 327.43C315.64 329.56 324.66 333.58 329.34 327.86C332.13 324.45 331.34 319.48 332.34 315.18C333.34 310.88 340.76 296.7 331.34 295.73C330.172 295.663 329.003 295.829 327.9 296.22C322.77 297.81 318.1 301.01 312.76 301.54C305.7 302.24 298.59 298.41 293.46 294.02C287.363 288.98 280.824 284.502 273.92 280.64C273.35 280.32 273.4 280.55 272.92 280.1C275.904 281.244 278.79 282.629 281.55 284.24C283.66 285.48 285.68 286.84 287.79 288.07C291.739 290.429 295.816 292.569 300 294.48C304.139 296.457 308.71 297.358 313.29 297.1C318.65 296.62 323.55 294.02 328.55 292.04C330.458 291.126 332.567 290.709 334.68 290.83C338.02 291.26 340.82 295.45 340.68 298.69C340.68 298.79 340.68 298.89 340.68 298.99C340.05 304.46 339.13 309.88 338.62 315.36C338.317 316.985 338.494 318.664 339.13 320.19C339.647 320.99 340.327 321.672 341.127 322.189C341.927 322.706 342.828 323.047 343.77 323.19C345.61 323.61 347.54 323.68 349.34 324.26C349.58 324.316 349.797 324.445 349.96 324.63C350.24 325.03 349.96 325.57 349.67 325.96C347.927 328.071 345.691 329.719 343.16 330.76C340.68 331.9 338.06 332.7 335.55 333.76C333.632 334.721 331.622 335.485 329.55 336.04C328.211 336.26 326.856 336.36 325.5 336.34C323.15 336.34 318.56 336.34 311.5 332.48C308.62 331 305.9 329.36 303.22 327.73Z" fill="black"/>
<path opacity="0.2" d="M162.84 304.53V352.06L165.78 353.67L165.77 306.23L162.84 304.53Z" fill="black"/>
<path opacity="0.1" d="M162.84 304.53L204.84 279.92C214.27 268.49 249.46 240.77 268.9 242.92L318.26 214.15L321.32 215.94L272.18 244.53C252.71 245.53 224.63 263.53 207.95 281.53L165.78 306.2L162.84 304.53Z" fill="black"/>
<path d="M265.001 218.19C260.431 219.7 251.901 219.74 243.841 213.98C234.471 207.29 218.941 195.98 218.941 195.98C218.941 195.98 202.511 171.05 207.601 170.18C211.416 169.65 215.299 169.909 219.009 170.941C222.72 171.973 226.178 173.756 229.171 176.18C235.171 181.24 263.101 209.29 263.101 209.29L265.001 218.19Z" fill="#FFA8A7"/>
<path d="M218.901 195.93C218.901 195.93 234.431 207.29 243.801 213.93C251.861 219.69 260.391 219.65 264.961 218.14L263.061 209.14C263.061 209.14 235.191 181 229.221 176C226.232 173.526 222.745 171.723 218.998 170.713C215.25 169.704 211.33 169.512 207.501 170.15C202.441 171.14 218.901 195.93 218.901 195.93Z" fill="#5087C9"/>
<path opacity="0.1" d="M218.901 195.93C218.901 195.93 234.431 207.29 243.801 213.93C251.861 219.69 260.391 219.65 264.961 218.14L263.061 209.14C263.061 209.14 235.191 181 229.221 176C226.232 173.526 222.745 171.723 218.998 170.713C215.25 169.704 211.33 169.512 207.501 170.15C202.441 171.14 218.901 195.93 218.901 195.93Z" fill="black"/>
<path opacity="0.2" d="M230.672 177.51L217.572 177.11L216.912 183.81C216.912 183.81 221.842 184.37 225.442 185.02C229.204 185.635 232.605 187.619 234.992 190.59C237.992 194.04 242.292 201.77 246.532 207.71C248.983 211.312 252.174 214.35 255.892 216.62L257.312 203.46C252.312 198.46 244.932 191.16 238.832 185.23C238.512 185.33 230.672 177.51 230.672 177.51Z" fill="black"/>
<path d="M231.221 226.28L224.071 218.4L223.221 208.91C225.956 206.528 227.735 203.237 228.23 199.644C228.724 196.052 227.901 192.402 225.911 189.37C222.001 183.02 219.641 181.07 216.521 177.89C211.671 172.97 209.331 170.94 207.521 170.13C204.458 170.3 201.408 170.664 198.391 171.22L183.641 173.33L172.441 176.4C169.711 190.59 167.441 203.71 169.551 218.74C172.401 238.55 174.661 244.53 182.051 257.57C183.291 246.98 201.791 235.99 209.511 232.46C222.761 226.41 231.221 226.28 231.221 226.28Z" fill="#455A64"/>
<path d="M202.501 113.32L196.001 114C189.291 114.66 182.711 115 176.861 118.72C171.76 121.958 168.095 127.03 166.621 132.89C164.621 141.17 167.831 150.16 172.701 156.15C174.35 158.401 176.198 160.499 178.221 162.42C180.221 164.18 182.131 165.64 183.451 165.81L183.111 160.25C186.043 161.644 189.281 162.27 192.521 162.07L197.521 161.82C199.756 161.694 201.941 161.112 203.942 160.112C205.944 159.111 207.72 157.712 209.161 156C210.677 154.23 211.998 152.302 213.101 150.25C213.871 148.86 213.641 147.35 214.261 145.94C214.967 144.459 215.769 143.026 216.661 141.65C217.853 139.855 218.729 137.87 219.251 135.78C219.781 133.637 219.496 131.374 218.451 129.43C217.39 127.923 215.814 126.857 214.021 126.43C217.821 122.91 218.701 115.31 213.021 113.09C211.367 112.598 209.621 112.499 207.921 112.8L202.501 113.32Z" fill="#263238"/>
<path d="M207.241 125C210.241 126.51 215.341 133.46 215.931 148.52C216.421 161.29 212.481 164.7 210.461 165.74C208.441 166.78 204.411 166.47 200.461 166.06L200.571 172.27C206.761 179.27 195.911 180.65 187.751 177.27C186.581 176.78 183.701 174.34 183.661 173.34L183.001 157.74C181.965 158.257 180.789 158.424 179.65 158.217C178.51 158.009 177.469 157.439 176.681 156.59C173.751 153.36 172.751 148.5 175.091 145.81C177.431 143.12 181.501 143.97 183.521 146.6C183.521 146.6 185.841 144.19 193.821 139.14C201.801 134.09 206.091 130.74 207.241 125Z" fill="#FFA8A7"/>
<path d="M183.471 146.6L183.521 152.6C184.084 152.596 184.64 152.481 185.159 152.262C185.677 152.043 186.147 151.723 186.542 151.322C186.937 150.92 187.248 150.445 187.459 149.923C187.67 149.401 187.776 148.843 187.771 148.28L187.711 141.07L183.471 146.6Z" fill="#263238"/>
<path d="M212.292 144.32C212.062 145.26 211.292 145.2 210.292 144.97C209.292 144.74 208.632 144.42 208.862 143.48C208.904 143.242 208.994 143.016 209.127 142.815C209.26 142.614 209.433 142.442 209.635 142.31C209.837 142.178 210.064 142.09 210.301 142.049C210.539 142.009 210.783 142.018 211.017 142.075C211.251 142.133 211.471 142.238 211.662 142.385C211.854 142.531 212.014 142.715 212.132 142.925C212.249 143.136 212.323 143.368 212.347 143.608C212.371 143.848 212.346 144.09 212.272 144.32H212.292Z" fill="#263238"/>
<path d="M200.002 144.75C200.382 145.68 199.832 146.09 198.902 146.47C197.972 146.85 197.012 147.07 196.632 146.14C196.541 145.919 196.494 145.682 196.494 145.442C196.495 145.203 196.542 144.966 196.634 144.745C196.726 144.524 196.86 144.323 197.03 144.154C197.199 143.985 197.401 143.851 197.622 143.76C197.843 143.669 198.08 143.622 198.32 143.622C198.559 143.623 198.796 143.67 199.017 143.762C199.238 143.854 199.439 143.989 199.608 144.158C199.777 144.328 199.911 144.529 200.002 144.75Z" fill="#263238"/>
<path d="M209.691 136.63L213.021 138.76C212.894 138.984 212.722 139.179 212.517 139.333C212.311 139.488 212.076 139.6 211.826 139.66C211.576 139.721 211.317 139.73 211.063 139.687C210.809 139.644 210.567 139.55 210.351 139.41C209.907 139.119 209.591 138.668 209.468 138.151C209.346 137.634 209.425 137.09 209.691 136.63Z" fill="#263238"/>
<path d="M194.711 140L197.941 137.72C198.1 137.923 198.216 138.156 198.282 138.405C198.347 138.654 198.361 138.914 198.323 139.169C198.285 139.423 198.195 139.667 198.058 139.886C197.922 140.105 197.743 140.293 197.531 140.44C197.093 140.74 196.558 140.862 196.034 140.78C195.509 140.698 195.036 140.419 194.711 140Z" fill="#263238"/>
<path d="M204.57 142.75L204.71 153.22L210.59 151.25L204.57 142.75Z" fill="#F28F8F"/>
<path opacity="0.15" d="M208.111 148.6C205.481 149.84 204.711 153.22 204.711 153.22L210.591 151.22L208.591 148.4C208.425 148.452 208.264 148.519 208.111 148.6Z" fill="black"/>
<path d="M191.231 151.56C191.561 153.17 193.451 154.15 195.451 153.75C197.451 153.35 198.801 151.75 198.451 150.09C198.101 148.43 196.231 147.5 194.231 147.9C192.231 148.3 190.911 149.94 191.231 151.56Z" fill="#F28F8F"/>
<path d="M212.151 147.76C212.001 149.4 213.521 150.89 215.551 151.08C217.581 151.27 219.351 150.08 219.551 148.46C219.751 146.84 218.181 145.33 216.151 145.14C214.121 144.95 212.311 146.12 212.151 147.76Z" fill="#F28F8F"/>
<path d="M207.442 159.51C207.002 161.19 205.602 160.99 203.912 160.51C202.222 160.03 200.912 159.57 201.352 157.88C201.59 157.104 202.12 156.45 202.829 156.055C203.538 155.66 204.372 155.554 205.158 155.759C205.944 155.964 206.62 156.464 207.045 157.156C207.471 157.847 207.613 158.676 207.442 159.47V159.51Z" fill="#B16668"/>
<path d="M202.751 156.94C202.39 156.938 202.031 156.999 201.691 157.12C201.541 157.37 201.427 157.639 201.351 157.92C200.911 159.61 202.231 160.11 203.911 160.55C204.412 160.688 204.924 160.785 205.441 160.84C205.53 160.582 205.584 160.313 205.601 160.04C205.628 159.253 205.345 158.486 204.811 157.906C204.278 157.326 203.538 156.979 202.751 156.94Z" fill="#F28F8F"/>
<path d="M200.48 166.08C196.34 165.8 187.76 163.9 186.23 160.64C186.865 162.298 187.992 163.722 189.46 164.72C192.11 166.72 200.55 168.78 200.55 168.78L200.48 166.08Z" fill="#F28F8F"/>
<path d="M264.002 199.34C257.052 190.5 243.442 179.45 241.612 176.22C240.121 173.389 238.32 170.733 236.242 168.3C235.332 167.3 234.242 166.54 233.462 165.46L230.382 161.46L230.262 161.29C229.942 160.88 229.532 160.41 229.012 160.44C228.83 160.465 228.657 160.535 228.509 160.643C228.361 160.751 228.241 160.894 228.162 161.06C228.017 161.398 227.945 161.763 227.952 162.13C227.94 163.395 228.157 164.652 228.592 165.84C228.962 166.95 230.462 168.92 229.262 169.17C223.962 170.27 217.492 168.17 212.082 167.97C211.313 167.868 210.531 168.005 209.842 168.36C209.549 168.584 209.307 168.869 209.134 169.195C208.962 169.522 208.862 169.881 208.842 170.25C208.796 171.212 208.908 172.174 209.172 173.1C210.004 175.792 211.702 178.133 214.002 179.76C216.422 181.46 220.752 182.22 223.602 183.01C226.452 183.8 229.692 184.38 232.192 186.21C234.962 188.21 237.192 191.33 239.192 194.05C243.192 199.27 246.872 205.33 250.522 210.77C256.152 219.17 261.402 219.49 264.982 218.23C268.562 216.97 271.002 208.18 264.002 199.34Z" fill="#FFA8A7"/>
<path d="M226.461 155.23L207.001 160.37C206.231 160.66 206.001 159.18 207.001 158.86L226.491 151.68L226.461 155.23Z" fill="#5087C9"/>
<path d="M223.2 153.91L207 159.33C206.75 159.43 206.72 160 207 159.93C207.57 159.8 223.65 155.24 223.65 155.24L223.2 153.91Z" fill="#F28F8F"/>
<path opacity="0.2" d="M221.85 153.37L226.45 151.68V155.23L223.01 156.14C222.338 155.364 221.931 154.393 221.85 153.37Z" fill="black"/>
<path d="M223.6 152.49C223.604 153.451 223.893 154.39 224.43 155.187C224.967 155.984 225.729 156.603 226.618 156.968C227.508 157.332 228.485 157.424 229.427 157.233C230.369 157.041 231.233 156.575 231.91 155.892C232.587 155.21 233.046 154.342 233.23 153.399C233.414 152.455 233.313 151.478 232.942 150.592C232.57 149.705 231.944 148.949 231.143 148.418C230.342 147.887 229.401 147.606 228.44 147.61C227.801 147.613 227.17 147.741 226.581 147.988C225.993 148.234 225.458 148.594 225.009 149.048C224.56 149.501 224.204 150.038 223.962 150.629C223.72 151.219 223.597 151.852 223.6 152.49Z" fill="#5087C9"/>
<path d="M225.621 152.48C225.623 153.042 225.792 153.59 226.105 154.056C226.419 154.522 226.864 154.885 227.384 155.098C227.903 155.311 228.475 155.365 229.025 155.253C229.576 155.142 230.081 154.87 230.476 154.471C230.872 154.073 231.141 153.566 231.249 153.014C231.356 152.463 231.298 151.892 231.081 151.374C230.864 150.856 230.499 150.414 230.031 150.103C229.563 149.793 229.013 149.628 228.451 149.63C228.078 149.63 227.708 149.704 227.364 149.847C227.019 149.991 226.706 150.201 226.443 150.466C226.18 150.731 225.972 151.045 225.831 151.391C225.69 151.737 225.619 152.107 225.621 152.48Z" fill="#F28F8F"/>
<path opacity="0.1" d="M225.621 152.48C225.623 153.042 225.792 153.59 226.105 154.056C226.419 154.522 226.864 154.885 227.384 155.098C227.903 155.311 228.475 155.365 229.025 155.253C229.576 155.142 230.081 154.87 230.476 154.471C230.872 154.073 231.141 153.566 231.249 153.014C231.356 152.463 231.298 151.892 231.081 151.374C230.864 150.856 230.499 150.414 230.031 150.103C229.563 149.793 229.013 149.628 228.451 149.63C228.078 149.63 227.708 149.704 227.364 149.847C227.019 149.991 226.706 150.201 226.443 150.466C226.18 150.731 225.972 151.045 225.831 151.391C225.69 151.737 225.619 152.107 225.621 152.48Z" fill="black"/>
<path d="M182.102 182.2C184.362 186.88 191.862 197.99 194.352 210.81C195.604 217.084 196.462 223.429 196.922 229.81C197.192 232.08 214.002 227.06 214.302 224.72C214.602 222.38 212.942 211.3 210.532 203.72C208.122 196.14 204.792 185.27 200.532 181.35L182.102 182.2Z" fill="#5087C9"/>
<path opacity="0.1" d="M182.102 182.2C184.362 186.88 191.862 197.99 194.352 210.81C195.604 217.084 196.462 223.429 196.922 229.81C197.192 232.08 214.002 227.06 214.302 224.72C214.602 222.38 212.942 211.3 210.532 203.72C208.122 196.14 204.792 185.27 200.532 181.35L182.102 182.2Z" fill="black"/>
<path d="M183.221 163.57C181.521 164.12 180.551 164.32 179.571 167.37C178.711 170.04 177.421 174.67 177.571 176.37C177.841 179 180.921 182.37 186.211 184.15C191.501 185.93 200.211 184.53 203.411 182.74C208.251 180.08 208.951 177.1 208.251 173.6C207.714 171.161 206.999 168.764 206.111 166.43C203.971 166.43 202.111 166.22 200.461 166.05L200.511 167.96C200.511 167.96 199.161 169.12 194.511 169.44C185.161 170.1 183.371 167.14 183.371 167.14L183.221 163.57Z" fill="#5087C9"/>
<path opacity="0.1" d="M190.431 173.3C192.556 173.904 194.786 174.038 196.967 173.693C199.148 173.347 201.228 172.531 203.061 171.3C203.463 170.988 203.776 170.577 203.97 170.107C204.165 169.637 204.234 169.125 204.17 168.621C204.106 168.116 203.913 167.637 203.608 167.23C203.303 166.823 202.898 166.503 202.431 166.3H202.151L200.481 166.14L200.531 168.05C200.531 168.05 199.181 169.21 194.531 169.53C185.181 170.19 183.391 167.23 183.391 167.23C182.941 167.5 184.191 171.65 190.431 173.3Z" fill="black"/>
<path d="M205.822 271.73C207.252 266.98 211.232 268.23 219.222 272.22C227.212 276.21 237.972 277.3 239.452 277.34C241.132 277.34 243.232 282.34 237.452 285.06C231.672 287.78 230.892 288.62 229.542 292.46C227.632 297.9 224.792 297.51 220.632 297.52C217.886 297.348 215.15 297.984 212.762 299.35C206.392 302.45 203.092 300.01 203.092 300.01C203.092 300.01 206.392 290.8 206.002 282.24C205.612 273.68 204.892 274.8 205.822 271.73Z" fill="#FAFAFA"/>
<path d="M212.182 282.42C214.602 279.75 215.112 277.42 213.732 274.87L205.592 276.44C205.722 277.65 205.882 279.44 206.012 282.24C206.062 283.4 206.012 284.57 206.012 285.72C208.002 285.09 210.762 284 212.182 282.42Z" fill="#E6E6E6"/>
<path d="M230.722 289.75C231.782 287.97 233.372 286.98 237.462 285.06C233.342 285.35 225.662 280.7 220.602 277.06C220.602 277 225.742 286.55 230.722 289.75Z" fill="#E6E6E6"/>
<path d="M212.772 299.35C214.242 298.522 215.847 297.96 217.512 297.69C217.737 292.412 216.633 287.161 214.302 282.42C214.962 289.15 213.542 296.7 211.242 300C211.763 299.81 212.274 299.593 212.772 299.35Z" fill="#E6E6E6"/>
<path d="M173.743 176.06C163.043 177.89 158.243 178.72 154.253 197.68C150.403 216 144.253 235.88 146.863 243.4C149.473 250.92 171.733 271.72 180.463 276.77C189.193 281.82 196.293 283.47 203.323 283.53C212.163 283.6 217.263 275.14 212.433 272.46C210.863 271.58 209.133 271.67 206.343 270.85C203.293 269.96 199.743 269.27 196.343 267.85C198.484 267.62 200.565 267 202.483 266.02C203.713 265.45 207.403 263.43 204.703 262.31C204.207 262.143 203.682 262.085 203.163 262.14L191.023 262.47C189.073 262.52 187.393 262.69 185.573 261.98C183.791 261.191 182.232 259.975 181.033 258.44C179.733 256.91 178.503 255.3 177.213 253.74C171.133 246.36 164.963 237.31 164.963 237.31L172.963 204.85C172.963 204.85 179.323 188.29 173.743 176.06Z" fill="#FFA8A7"/>
<path d="M174.552 175.83C169.102 175.83 162.552 177.36 159.252 182.14C155.952 186.92 154.432 194.48 150.432 211.48C146.432 228.48 145.512 236.64 145.542 240.93C145.572 245.22 153.902 253.26 153.902 253.26C158.032 248.635 163.284 245.153 169.152 243.15L165.482 237.3C165.482 237.3 172.562 208.15 174.552 202.48C176.542 196.81 179.562 183 174.552 175.83Z" fill="#5087C9"/>
<path opacity="0.1" d="M174.552 175.83C169.102 175.83 162.552 177.36 159.252 182.14C155.952 186.92 154.432 194.48 150.432 211.48C146.432 228.48 145.512 236.64 145.542 240.93C145.572 245.22 153.902 253.26 153.902 253.26C158.032 248.635 163.284 245.153 169.152 243.15L165.482 237.3C165.482 237.3 172.562 208.15 174.552 202.48C176.542 196.81 179.562 183 174.552 175.83Z" fill="black"/>
<path opacity="0.2" d="M165.483 237.3C162.483 235.86 157.643 238.4 157.643 238.4C157.643 238.4 160.353 235.4 165.943 235.4L165.483 237.3Z" fill="black"/>
<path d="M143.771 227.72C143.652 227.723 143.535 227.684 143.441 227.61L140.181 225.1C140.111 225.047 140.056 224.977 140.021 224.896C139.986 224.816 139.972 224.727 139.981 224.64C139.986 224.551 140.013 224.465 140.06 224.39C140.107 224.315 140.173 224.253 140.251 224.21L143.561 222.33L140.561 219.44C140.497 219.379 140.449 219.304 140.422 219.22C140.394 219.136 140.387 219.047 140.401 218.96C140.419 218.874 140.456 218.793 140.509 218.724C140.563 218.654 140.632 218.598 140.711 218.56L144.241 216.95L141.301 214.72C141.227 214.664 141.168 214.589 141.132 214.503C141.095 214.417 141.081 214.323 141.091 214.23C141.102 214.136 141.137 214.047 141.193 213.972C141.249 213.896 141.325 213.837 141.411 213.8L145.311 212.07L142.431 209.26C142.37 209.198 142.325 209.122 142.298 209.039C142.272 208.956 142.266 208.868 142.281 208.782C142.296 208.696 142.33 208.614 142.383 208.545C142.435 208.475 142.503 208.418 142.581 208.38L147.011 206.38C147.144 206.322 147.294 206.318 147.429 206.371C147.564 206.423 147.673 206.527 147.731 206.66C147.79 206.793 147.793 206.943 147.74 207.078C147.688 207.213 147.584 207.322 147.451 207.38L143.741 209L146.621 211.82C146.685 211.879 146.733 211.953 146.761 212.035C146.789 212.117 146.796 212.205 146.781 212.29C146.767 212.377 146.731 212.46 146.677 212.529C146.623 212.599 146.552 212.655 146.471 212.69L142.671 214.38L145.601 216.6C145.675 216.656 145.733 216.732 145.768 216.818C145.803 216.904 145.815 216.998 145.801 217.09C145.792 217.181 145.759 217.269 145.707 217.344C145.654 217.419 145.584 217.48 145.501 217.52L141.871 219.17L144.871 222.01C144.932 222.067 144.978 222.138 145.006 222.217C145.034 222.296 145.043 222.38 145.033 222.463C145.022 222.546 144.992 222.625 144.945 222.694C144.897 222.763 144.835 222.82 144.761 222.86L141.521 224.7L144.131 226.7C144.188 226.742 144.235 226.795 144.271 226.856C144.306 226.917 144.329 226.984 144.339 227.054C144.348 227.124 144.343 227.195 144.325 227.263C144.306 227.331 144.275 227.395 144.231 227.45C144.187 227.533 144.121 227.602 144.039 227.65C143.958 227.698 143.865 227.722 143.771 227.72Z" fill="#5087C9"/>
<path d="M271.752 207.48C271.679 207.494 271.604 207.494 271.532 207.48C271.402 207.421 271.301 207.314 271.248 207.182C271.196 207.049 271.197 206.902 271.252 206.77L272.862 203.03L268.862 202.9C268.774 202.896 268.688 202.871 268.612 202.828C268.535 202.784 268.47 202.723 268.422 202.65C268.382 202.573 268.361 202.487 268.361 202.4C268.361 202.313 268.382 202.227 268.422 202.15L270.002 198.3L266.342 198.63C266.25 198.641 266.158 198.627 266.073 198.59C265.989 198.553 265.916 198.494 265.862 198.42C265.804 198.346 265.767 198.257 265.757 198.164C265.746 198.07 265.762 197.975 265.802 197.89L267.352 194.22L263.262 194.12C263.177 194.118 263.094 194.096 263.019 194.056C262.944 194.016 262.88 193.959 262.832 193.89C262.785 193.822 262.755 193.744 262.743 193.663C262.731 193.582 262.737 193.499 262.762 193.42L263.912 189.87L260.622 190.15C260.48 190.161 260.339 190.116 260.231 190.024C260.122 189.932 260.054 189.802 260.042 189.66C260.035 189.59 260.042 189.519 260.063 189.451C260.084 189.383 260.119 189.321 260.164 189.267C260.21 189.213 260.266 189.168 260.329 189.136C260.392 189.104 260.461 189.085 260.532 189.08L264.632 188.74C264.719 188.732 264.807 188.746 264.887 188.781C264.968 188.816 265.038 188.871 265.092 188.94C265.147 189.009 265.185 189.091 265.2 189.179C265.216 189.266 265.21 189.356 265.182 189.44L264.002 193.07L268.172 193.17C268.259 193.174 268.345 193.199 268.421 193.243C268.498 193.286 268.563 193.347 268.612 193.42C268.651 193.497 268.672 193.583 268.672 193.67C268.672 193.757 268.651 193.843 268.612 193.92L267.092 197.48L270.762 197.15C270.855 197.142 270.949 197.158 271.035 197.196C271.121 197.235 271.195 197.295 271.252 197.37C271.306 197.446 271.339 197.535 271.348 197.628C271.357 197.721 271.341 197.815 271.302 197.9L269.592 201.81L273.592 201.95C273.678 201.953 273.762 201.977 273.837 202.019C273.913 202.062 273.976 202.123 274.022 202.196C274.069 202.269 274.097 202.352 274.103 202.438C274.11 202.524 274.096 202.611 274.062 202.69L272.152 207.16C272.117 207.242 272.062 207.315 271.992 207.37C271.922 207.426 271.84 207.464 271.752 207.48Z" fill="#5087C9"/>
<path d="M154.842 266.52C154.699 266.518 154.563 266.461 154.462 266.36C154.398 266.297 154.352 266.219 154.328 266.133C154.303 266.048 154.301 265.957 154.322 265.87L155.112 262.14L150.952 262.48C150.865 262.483 150.779 262.467 150.699 262.432C150.619 262.398 150.549 262.346 150.492 262.28C150.438 262.212 150.402 262.131 150.387 262.046C150.371 261.961 150.376 261.873 150.402 261.79L151.532 258.08L147.912 258.8C147.821 258.817 147.727 258.81 147.639 258.78C147.552 258.751 147.473 258.699 147.412 258.63C147.348 258.561 147.305 258.477 147.285 258.385C147.266 258.294 147.272 258.199 147.302 258.11L148.592 254.04L144.592 254.33C144.505 254.336 144.417 254.322 144.337 254.287C144.257 254.252 144.186 254.198 144.132 254.13C144.077 254.062 144.04 253.982 144.024 253.897C144.008 253.811 144.014 253.723 144.042 253.64L145.472 249C145.483 248.924 145.51 248.852 145.552 248.787C145.593 248.723 145.648 248.669 145.713 248.628C145.778 248.587 145.851 248.56 145.927 248.55C146.003 248.54 146.08 248.547 146.153 248.57C146.226 248.592 146.294 248.631 146.351 248.682C146.408 248.733 146.453 248.796 146.483 248.866C146.513 248.937 146.528 249.013 146.526 249.089C146.524 249.166 146.506 249.241 146.472 249.31L145.272 253.2L149.272 252.91C149.359 252.905 149.446 252.92 149.526 252.955C149.606 252.989 149.676 253.043 149.732 253.11C149.785 253.18 149.821 253.262 149.837 253.349C149.852 253.436 149.847 253.526 149.822 253.61L148.562 257.61L152.172 256.89C152.262 256.873 152.356 256.879 152.443 256.908C152.531 256.937 152.61 256.988 152.672 257.057C152.734 257.125 152.778 257.208 152.799 257.298C152.82 257.388 152.817 257.481 152.792 257.57L151.622 261.39L155.712 261.06C155.794 261.051 155.878 261.063 155.954 261.094C156.031 261.126 156.099 261.176 156.152 261.24C156.209 261.301 156.25 261.374 156.273 261.454C156.295 261.534 156.298 261.619 156.282 261.7L155.502 265.35L158.752 264.72C158.823 264.703 158.897 264.701 158.969 264.713C159.041 264.725 159.11 264.752 159.171 264.792C159.232 264.832 159.285 264.883 159.326 264.944C159.367 265.005 159.395 265.073 159.408 265.145C159.422 265.217 159.421 265.291 159.405 265.362C159.389 265.434 159.359 265.501 159.316 265.56C159.273 265.62 159.219 265.67 159.156 265.708C159.094 265.745 159.024 265.77 158.952 265.78L154.952 266.55L154.842 266.52Z" fill="#5087C9"/>
<path d="M163.873 133.65L159.333 131.22L161.943 128.99L152.513 124.57L156.633 122.19L146.473 116.79L152.513 122.11L147.603 124.57L158.683 129.38L155.943 132.11L163.873 133.65Z" fill="#F28F8F"/>
<path d="M166.192 127.67L163.232 124.84L164.842 123.64L162.242 120.57L164.742 119.72L163.872 115.82L165.622 120.03L163.872 120.79L166.672 123.87L164.782 125.22L166.192 127.67Z" fill="#F28F8F"/>
<path d="M164.462 138.12L158.892 142.47L156.832 139.44L151.962 142.09L149.952 138.34L142.412 140.27L151.152 136.1L153.652 139.54L157.702 137.37L159.392 140.27L164.462 138.12Z" fill="#F28F8F"/>
<path opacity="0.1" d="M241.921 332.46C241.859 332.92 241.695 333.361 241.441 333.75C240.681 335.49 241.931 337.49 243.441 338.59C244.752 339.457 246.229 340.043 247.778 340.312C249.327 340.58 250.914 340.525 252.441 340.15C255.502 339.357 258.319 337.817 260.641 335.67C262.801 333.77 264.811 330.96 263.891 328.24C263.091 325.89 260.321 324.71 257.891 324.87C255.461 325.03 253.141 326.22 250.891 327.26C248.705 328.288 246.304 328.775 243.891 328.68C243.041 328.68 241.891 328.74 241.321 329.57C240.591 330.85 241.881 331.26 241.921 332.46Z" fill="black"/>
<path opacity="0.1" d="M269.711 347.71C269.181 348.99 270.151 350.48 271.421 351.03C272.739 351.467 274.148 351.557 275.511 351.29C277.512 351.193 279.48 350.739 281.321 349.95C282.197 349.4 283.12 348.932 284.081 348.55C286.031 347.96 288.161 348.8 290.161 348.41C291.302 348.156 292.324 347.523 293.06 346.616C293.797 345.709 294.206 344.579 294.221 343.41L276.721 343.48C272.131 343.48 267.861 344.69 263.291 344.9C264.241 347.19 267.381 348.33 269.711 347.71Z" fill="black"/>
<path d="M244.93 326C244.761 326.039 244.594 326.09 244.43 326.15C243.961 326.299 243.534 326.558 243.186 326.906C242.838 327.254 242.579 327.681 242.43 328.15C242.306 328.63 242.334 329.137 242.51 329.6C242.7 329.92 243.18 329.85 243.12 330.4C243.054 330.763 242.859 331.09 242.57 331.32C242.288 331.548 242.053 331.83 241.88 332.15C241.782 332.527 241.809 332.926 241.957 333.287C242.105 333.647 242.366 333.95 242.7 334.15C243.366 334.523 244.001 334.948 244.6 335.42C245.36 336.18 245.7 337.42 246.73 337.77C247.29 337.859 247.863 337.829 248.41 337.68C249.69 337.51 250.56 338.51 251.88 337.78C252.4 337.5 252.8 337.01 253.32 336.78C254.04 336.537 254.78 336.356 255.53 336.24C256.264 335.947 256.964 335.579 257.62 335.14C258.98 334.273 260.167 333.161 261.12 331.86C263.059 329.283 263.956 326.069 263.63 322.86C263.487 320.937 262.643 319.134 261.26 317.79C258.74 315.56 254.6 315.84 252.26 313.39C252.49 315.45 253.09 317.46 253.26 319.54C253.39 320.577 253.302 321.629 253 322.63C252.37 324.25 251.13 322.82 249.94 322.56C249.55 322.459 249.142 322.446 248.746 322.522C248.35 322.598 247.976 322.761 247.65 323C247.262 323.345 247.018 323.824 246.966 324.34C246.914 324.857 247.059 325.375 247.37 325.79C246.552 325.769 245.733 325.839 244.93 326Z" fill="#FAFAFA"/>
<path d="M253.001 322.59C252.711 323.34 252.291 323.43 251.801 323.29C251.801 323.29 255.511 325.9 256.201 328.29C257.111 324.51 253.261 319.46 253.261 319.46C253.396 320.51 253.308 321.577 253.001 322.59Z" fill="#E6E6E6"/>
<path d="M247.362 331C247.362 331 244.762 331.07 244.012 335C244.226 335.13 244.424 335.284 244.602 335.46C245.172 336.03 245.512 336.9 246.082 337.46C245.262 336.28 245.422 331.89 247.362 331Z" fill="#E6E6E6"/>
<path d="M254.061 336.46C254.558 336.403 255.049 336.306 255.531 336.17C255.998 335.989 256.45 335.768 256.881 335.51C257.248 334.125 257.157 332.659 256.621 331.33C256.667 332.332 256.456 333.33 256.008 334.228C255.56 335.126 254.89 335.894 254.061 336.46Z" fill="#E6E6E6"/>
<path d="M251.79 327.92C250.93 324.84 247.04 323.92 247.03 323.92C246.94 324.23 246.923 324.556 246.98 324.874C247.038 325.191 247.168 325.491 247.36 325.75C248.065 325.92 248.726 326.236 249.301 326.678C249.875 327.12 250.351 327.677 250.696 328.315C251.041 328.952 251.248 329.655 251.304 330.378C251.36 331.101 251.263 331.827 251.02 332.51C251.02 332.51 252.64 331 251.79 327.92Z" fill="#E6E6E6"/>
<path d="M267.611 342C266.561 342.143 265.499 342.177 264.441 342.1C264.981 343.37 264.991 344.04 266.031 344.93C266.677 345.477 267.448 345.854 268.275 346.029C269.103 346.203 269.96 346.169 270.771 345.93C270.941 347.29 271.291 348.68 272.771 349.16C273.476 349.345 274.223 349.267 274.875 348.942C275.526 348.616 276.037 348.064 276.311 347.39C276.929 348.124 277.79 348.612 278.737 348.764C279.684 348.917 280.655 348.723 281.471 348.22C283.291 347 283.761 345.87 286.151 346.33C287.941 346.67 289.561 346.83 291.051 345.54C292.212 344.381 293.079 342.962 293.581 341.4C293.598 341.366 293.607 341.328 293.607 341.29C293.607 341.252 293.598 341.214 293.581 341.18C293.581 341.1 293.441 341.09 293.361 341.08C290.231 340.73 285.831 340.85 283.981 337.72C283.586 336.941 283.271 336.123 283.041 335.28C282.806 334.432 282.304 333.682 281.611 333.14C281.259 332.881 280.826 332.756 280.39 332.787C279.954 332.818 279.543 333.003 279.231 333.31C278.844 332.746 278.28 332.328 277.627 332.121C276.975 331.914 276.273 331.932 275.631 332.17C275.065 332.328 274.539 332.608 274.094 332.992C273.648 333.376 273.292 333.853 273.051 334.39C272.361 335.69 272.391 337.27 271.791 338.63C271.453 339.447 270.926 340.172 270.253 340.746C269.581 341.319 268.781 341.725 267.921 341.93L267.611 342Z" fill="#FAFAFA"/>
<path d="M289.391 346.44C286.931 345.81 282.811 342.32 281.341 339.44C281.214 342.039 282.023 344.597 283.621 346.65C284.006 346.431 284.43 346.289 284.869 346.234C285.309 346.18 285.754 346.212 286.181 346.33C287.23 346.599 288.326 346.637 289.391 346.44Z" fill="#E6E6E6"/>
<path d="M278.56 348.74C276.96 346.63 277.09 339.45 277.09 339.45C276.3 342.021 276.044 344.727 276.34 347.4C276.902 348.091 277.687 348.564 278.56 348.74Z" fill="#E6E6E6"/>
<path d="M270.59 343.89C269.654 344.779 268.503 345.41 267.25 345.72C268.367 346.181 269.605 346.258 270.77 345.94C271.31 343.83 274.77 339.94 274.77 339.94C273.174 341.024 271.763 342.358 270.59 343.89Z" fill="#E6E6E6"/>
<path opacity="0.1" d="M283.662 245.13L306.362 232.13C306.983 231.819 307.667 231.656 308.362 231.656C309.056 231.656 309.741 231.819 310.362 232.13L348.362 254.13C348.607 254.21 348.82 254.365 348.971 254.573C349.123 254.782 349.204 255.033 349.204 255.29C349.204 255.547 349.123 255.798 348.971 256.007C348.82 256.215 348.607 256.37 348.362 256.45L325.652 269.45C325.031 269.759 324.346 269.92 323.652 269.92C322.958 269.92 322.273 269.759 321.652 269.45L283.652 247.45C283.412 247.364 283.205 247.206 283.059 246.998C282.913 246.79 282.835 246.541 282.836 246.286C282.837 246.032 282.917 245.784 283.065 245.577C283.213 245.37 283.422 245.214 283.662 245.13Z" fill="black"/>
<path d="M286.053 233.11L308.933 219.91L347.053 241.92L324.183 255.13L286.053 233.11Z" fill="#455A64"/>
<path d="M286.053 246.32L324.183 268.33V255.13L286.053 233.11V246.32Z" fill="#37474F"/>
<path d="M347.052 241.92L324.182 255.13V268.33L347.052 255.13V241.92Z" fill="#263238"/>
<path d="M305.361 235.46L320.111 244C321.321 244.641 322.665 244.989 324.033 245.015C325.402 245.041 326.758 244.745 327.991 244.15C330.091 242.93 329.991 240.9 327.741 239.6L313.001 231.06C311.792 230.419 310.448 230.071 309.079 230.045C307.71 230.019 306.355 230.315 305.121 230.91C303.001 232.13 303.121 234.16 305.361 235.46Z" fill="#263238"/>
<path d="M308.391 234.72C308.391 234.72 306.001 218.51 311.001 211.89C311.001 211.89 311.891 216.63 314.151 217.52C317.851 218.97 321.541 217.86 323.641 220.29C325.741 222.72 324.801 224.42 327.461 226.29C329.081 227.4 333.821 225.96 336.351 228.16C336.351 228.16 326.861 233.67 323.641 243.57L308.391 234.72Z" fill="#FAFAFA"/>
<path d="M320.432 218.68C319.072 218.43 317.532 218.38 315.932 218.04C313.932 223.26 314.932 232.14 314.932 232.14C315.262 226.65 318.532 219.87 320.432 218.68Z" fill="#E6E6E6"/>
<path d="M327.461 226.25C327.13 226.024 326.822 225.766 326.541 225.48C322.961 229.12 320.711 236.48 320.711 236.48C322.171 233.86 329.651 227.01 331.951 226.83C330.111 226.71 328.331 226.85 327.461 226.25Z" fill="#E6E6E6"/>
<path d="M130.12 131.92C130.01 131.851 129.881 131.816 129.75 131.82H123.07L120.32 133.41L121.9 143.85L124.66 142.26L127.05 139.5V146.25L128.93 145.57L137.03 136.88C137.101 136.798 137.153 136.702 137.183 136.598C137.212 136.494 137.219 136.385 137.202 136.278C137.185 136.171 137.144 136.07 137.083 135.98C137.023 135.891 136.943 135.815 136.85 135.76L130.12 131.92Z" fill="#5087C9"/>
<path opacity="0.7" d="M130.12 131.92C130.01 131.851 129.881 131.816 129.75 131.82H123.07L120.32 133.41L121.9 143.85L124.66 142.26L127.05 139.5V146.25L128.93 145.57L137.03 136.88C137.101 136.798 137.153 136.702 137.183 136.598C137.212 136.494 137.219 136.385 137.202 136.278C137.185 136.171 137.144 136.07 137.083 135.98C137.023 135.891 136.943 135.815 136.85 135.76L130.12 131.92Z" fill="white"/>
<path d="M127.051 146.25L128.931 145.57L137.031 136.88C137.123 136.774 137.183 136.645 137.203 136.506C137.223 136.367 137.203 136.226 137.145 136.098C137.087 135.97 136.994 135.862 136.876 135.786C136.758 135.71 136.621 135.67 136.481 135.67H128.931L127.051 137.26V146.25Z" fill="#5087C9"/>
<path opacity="0.4" d="M127.051 146.25L128.931 145.57L137.031 136.88C137.123 136.774 137.183 136.645 137.203 136.506C137.223 136.367 137.203 136.226 137.145 136.098C137.087 135.97 136.994 135.862 136.876 135.786C136.758 135.71 136.621 135.67 136.481 135.67H128.931L127.051 137.26V146.25Z" fill="white"/>
<path d="M128.931 91.63C128.873 90.5257 128.555 89.4506 128.003 88.4929C127.45 87.5351 126.678 86.722 125.751 86.12C124.765 85.6217 123.675 85.3621 122.571 85.3621C121.466 85.3621 120.377 85.6217 119.391 86.12L89.5706 103.22C88.643 103.822 87.8713 104.635 87.3185 105.593C86.7658 106.551 86.4478 107.626 86.3906 108.73V169.17C86.4478 170.274 86.7658 171.349 87.3185 172.307C87.8713 173.265 88.643 174.078 89.5706 174.68C90.5566 175.178 91.6459 175.438 92.7506 175.438C93.8554 175.438 94.9447 175.178 95.9306 174.68L126.051 157.37C128.911 155.74 128.931 154.1 128.931 152.07V91.63Z" fill="#5087C9"/>
<path opacity="0.4" d="M128.931 91.63C128.873 90.5257 128.555 89.4506 128.003 88.4929C127.45 87.5351 126.678 86.722 125.751 86.12C124.765 85.6217 123.675 85.3621 122.571 85.3621C121.466 85.3621 120.377 85.6217 119.391 86.12L89.5706 103.22C88.643 103.822 87.8713 104.635 87.3185 105.593C86.7658 106.551 86.4478 107.626 86.3906 108.73V169.17C86.4478 170.274 86.7658 171.349 87.3185 172.307C87.8713 173.265 88.643 174.078 89.5706 174.68C90.5566 175.178 91.6459 175.438 92.7506 175.438C93.8554 175.438 94.9447 175.178 95.9306 174.68L126.051 157.37C128.911 155.74 128.931 154.1 128.931 152.07V91.63Z" fill="white"/>
<path opacity="0.2" d="M86.3906 169.17C86.4478 170.274 86.7658 171.349 87.3185 172.307C87.8713 173.265 88.643 174.078 89.5706 174.68C90.4679 175.13 91.4501 175.386 92.4529 175.431C93.4557 175.475 94.4568 175.308 95.3906 174.94C93.8906 175.51 92.7506 174.65 92.7506 172.84V112.4C92.7919 111.292 93.1118 110.212 93.6806 109.26L87.3206 105.59C86.7461 106.539 86.4258 107.621 86.3906 108.73V169.17Z" fill="black"/>
<path d="M128.83 90.73C128.46 89.37 127.23 88.94 125.76 89.79L95.9301 106.89C94.9867 107.472 94.214 108.293 93.6901 109.27L87.3301 105.6C87.8597 104.627 88.6312 103.808 89.5701 103.22L119.38 86.12C120.368 85.6216 121.459 85.3619 122.565 85.3619C123.671 85.3619 124.762 85.6216 125.75 86.12C126.55 86.6382 127.236 87.3143 127.766 88.1071C128.296 88.8998 128.658 89.7923 128.83 90.73Z" fill="#5087C9"/>
<path opacity="0.7" d="M128.83 90.73C128.46 89.37 127.23 88.94 125.76 89.79L95.9301 106.89C94.9867 107.472 94.214 108.293 93.6901 109.27L87.3301 105.6C87.8597 104.627 88.6312 103.808 89.5701 103.22L119.38 86.12C120.368 85.6216 121.459 85.3619 122.565 85.3619C123.671 85.3619 124.762 85.6216 125.75 86.12C126.55 86.6382 127.236 87.3143 127.766 88.1071C128.296 88.8998 128.658 89.7923 128.83 90.73Z" fill="white"/>
<path d="M111.311 159.88C107.311 162.19 104.061 159.06 104.061 152.88C104.122 148.589 105.455 144.413 107.891 140.88V113.63C107.891 110.72 109.421 107.47 111.311 106.38C113.201 105.29 114.741 106.77 114.741 109.68V136.92C117.101 137.51 118.561 140.4 118.561 144.54C118.561 150.69 115.311 157.58 111.311 159.88ZM111.311 107.54C109.841 108.39 108.641 110.93 108.641 113.2V141.2L108.431 141.48C106.13 144.692 104.867 148.53 104.811 152.48C104.811 158 107.731 160.81 111.311 158.74C114.891 156.67 117.811 150.5 117.811 144.98C117.811 141.16 116.431 138.53 114.201 138.11H113.991V110.11C114.001 107.84 112.791 106.68 111.311 107.54Z" fill="#455A64"/>
<g opacity="0.7">
<path opacity="0.7" d="M111.311 107.54C109.841 108.39 108.641 110.93 108.641 113.2V141.2L108.431 141.48C106.13 144.692 104.867 148.53 104.811 152.48C104.811 158 107.731 160.81 111.311 158.74C114.891 156.67 117.811 150.5 117.811 144.98C117.811 141.16 116.431 138.53 114.201 138.11H113.991V110.11C114.001 107.84 112.791 106.68 111.311 107.54Z" fill="white"/>
</g>
<path d="M112.25 142V113C112.25 112.2 111.83 111.79 111.31 112.09C111.009 112.328 110.768 112.632 110.605 112.979C110.442 113.326 110.361 113.707 110.37 114.09V143.09C108.213 145.363 107.007 148.376 107 151.51C107 155.18 108.93 157.04 111.31 155.66C113.69 154.28 115.62 150.2 115.62 146.53C115.62 143.35 114.18 141.53 112.25 142Z" fill="#F28F8F"/>
<path d="M112.761 132.19C112.702 132.188 112.644 132.173 112.592 132.145C112.54 132.118 112.495 132.078 112.461 132.03C112.415 131.948 112.402 131.852 112.425 131.761C112.447 131.67 112.503 131.591 112.581 131.54L114.151 130.6C114.231 130.555 114.324 130.543 114.412 130.567C114.5 130.59 114.576 130.647 114.623 130.725C114.67 130.803 114.684 130.896 114.663 130.985C114.642 131.074 114.588 131.151 114.511 131.2L112.941 132.14C112.889 132.177 112.825 132.195 112.761 132.19Z" fill="#455A64"/>
<path d="M112.76 127.82C112.7 127.819 112.641 127.803 112.589 127.773C112.536 127.743 112.492 127.701 112.46 127.65C112.415 127.57 112.402 127.475 112.425 127.386C112.447 127.297 112.503 127.219 112.58 127.17L114.15 126.23C114.229 126.181 114.323 126.166 114.413 126.186C114.503 126.207 114.581 126.262 114.63 126.34C114.655 126.379 114.672 126.423 114.68 126.468C114.687 126.514 114.685 126.561 114.674 126.606C114.663 126.651 114.642 126.693 114.614 126.73C114.586 126.767 114.551 126.797 114.51 126.82L112.94 127.82C112.882 127.84 112.819 127.84 112.76 127.82Z" fill="#455A64"/>
<path d="M112.76 123.45C112.7 123.449 112.641 123.433 112.589 123.403C112.536 123.373 112.492 123.331 112.46 123.28C112.415 123.2 112.402 123.105 112.425 123.016C112.447 122.927 112.503 122.849 112.58 122.8L114.15 121.8C114.231 121.757 114.325 121.746 114.413 121.768C114.502 121.79 114.579 121.844 114.63 121.92C114.655 121.959 114.672 122.003 114.68 122.048C114.687 122.094 114.685 122.141 114.674 122.186C114.663 122.231 114.642 122.273 114.614 122.31C114.586 122.347 114.551 122.377 114.51 122.4L112.94 123.4C112.886 123.433 112.824 123.45 112.76 123.45Z" fill="#455A64"/>
<path d="M112.76 119.08C112.7 119.079 112.641 119.063 112.589 119.033C112.536 119.003 112.492 118.961 112.46 118.91C112.415 118.83 112.402 118.735 112.425 118.646C112.447 118.557 112.503 118.479 112.58 118.43L114.15 117.43C114.19 117.405 114.234 117.388 114.28 117.38C114.326 117.372 114.373 117.373 114.419 117.384C114.465 117.395 114.507 117.414 114.545 117.442C114.583 117.47 114.615 117.505 114.639 117.545C114.663 117.585 114.679 117.629 114.685 117.676C114.692 117.722 114.689 117.769 114.677 117.814C114.665 117.86 114.644 117.902 114.616 117.939C114.587 117.976 114.551 118.007 114.51 118.03L112.94 119.03C112.886 119.063 112.824 119.08 112.76 119.08Z" fill="#455A64"/>
<path d="M112.76 114.71C112.7 114.709 112.641 114.693 112.588 114.663C112.536 114.634 112.492 114.591 112.46 114.54C112.412 114.46 112.398 114.365 112.421 114.275C112.443 114.185 112.5 114.108 112.58 114.06L114.15 113.06C114.229 113.015 114.323 113.003 114.411 113.027C114.499 113.05 114.575 113.107 114.622 113.185C114.668 113.263 114.683 113.356 114.662 113.445C114.641 113.534 114.587 113.611 114.51 113.66L112.94 114.66C112.886 114.693 112.823 114.71 112.76 114.71Z" fill="#455A64"/>
</svg>
