<svg width="50" height="50" viewBox="0 0 50 50" fill="none" xmlns="http://www.w3.org/2000/svg">
<g clip-path="url(#clip0)">
<path fill-rule="evenodd" clip-rule="evenodd" d="M47.3393 15.7352C37.9549 33.1852 19.2088 40.2796 1.79764 30.4557C1.21802 30.1285 0.482994 30.333 0.155871 30.9055C-0.171252 31.4882 0.0332222 32.2242 0.612843 32.5513C19.2752 43.0908 39.4024 35.5773 49.4615 16.8801C49.7763 16.2975 49.5566 15.5613 48.9708 15.2444C48.385 14.9378 47.6541 15.1525 47.3393 15.7352Z" fill="#57F9F0"/>
<path d="M16.4494 22.9715C18.3879 22.9715 19.9594 21.4001 19.9594 19.4616C19.9594 17.5231 18.3879 15.9517 16.4494 15.9517C14.5109 15.9517 12.9395 17.5231 12.9395 19.4616C12.9395 21.4001 14.5109 22.9715 16.4494 22.9715Z" fill="#57F9F0"/>
<path d="M30.9804 19.2379C32.881 19.2379 34.4218 17.6972 34.4218 15.7966C34.4218 13.8959 32.881 12.3552 30.9804 12.3552C29.0798 12.3552 27.5391 13.8959 27.5391 15.7966C27.5391 17.6972 29.0798 19.2379 30.9804 19.2379Z" fill="#57F9F0"/>
</g>
<defs>
<clipPath id="clip0">
<rect width="50" height="50" fill="white"/>
</clipPath>
</defs>
</svg>
