<svg width="50" height="50" viewBox="0 0 50 50" fill="none" xmlns="http://www.w3.org/2000/svg">
<path fill-rule="evenodd" clip-rule="evenodd" d="M19.8052 9.85323C19.6713 9.05859 19.5704 8.27296 19.5052 7.48725C19.407 6.30867 19.4677 5.12109 19.4329 3.94252C19.4177 3.44252 19.3579 2.13897 19.382 1.95147C19.6008 0.317538 20.9195 0.0675077 21.3052 0.0228649C21.4918 -0.00392083 23.4079 -0.218111 23.8213 1.90689C24.3284 4.5051 24.4909 7.12114 24.3115 9.68364C24.7302 11.8622 25.4463 14.0318 26.3919 15.9961C30.1544 23.8086 37.324 24.5675 45.0918 24.4961C46.2865 24.4783 47.2785 25.4157 47.341 26.6032C47.4035 27.7997 46.5142 28.8354 45.3249 28.9425C40.9829 29.3622 33.2793 32.8444 30.6159 36.4694C30.0588 37.2283 29.7347 39.0587 29.3061 40.8533C28.7079 43.3444 27.9963 45.8086 27.199 46.8443C27.0793 47.0051 25.6249 48.648 25.1909 48.889C24.1481 49.4605 23.3133 49.13 22.8392 48.8265C22.3651 48.5229 21.8285 47.9247 21.6142 46.9336C21.3901 45.8979 21.5793 43.7729 21.5445 43.3175C21.4177 41.6657 21.0874 38.4247 20.4133 35.639C20.0499 34.139 19.6624 32.755 19.0213 32.0675C16.6481 29.5229 12.8535 29.8979 9.65793 30.3176C9.29096 30.3622 8.924 30.4158 8.55793 30.4604C7.25704 30.8444 5.87575 31.13 4.41593 31.2997C2.21147 31.5586 1.84899 29.5318 1.82935 29.3979C1.78828 29.1032 1.63558 27.5854 3.29719 26.9783C3.47844 26.9158 4.81595 26.6211 5.33113 26.505C6.04899 26.3443 6.77487 26.2194 7.50344 26.1033C15.0293 23.764 19.1168 17.1925 19.8052 9.85323ZM22.3883 17.9694C25.2293 23.8444 29.5409 26.6836 34.6517 27.9693H34.6508C31.4597 29.639 28.557 31.7283 27.0186 33.8265C26.4347 34.6212 25.899 36.2193 25.4159 38.014C25.1543 36.3443 24.8008 34.5675 24.3338 33.0496C23.8026 31.3175 23.0874 29.8801 22.2892 29.023C20.7481 27.3712 18.8141 26.4515 16.7347 25.9962C19.224 23.7908 21.1115 21.0408 22.3883 17.9694Z" fill="#F2C94C"/>
</svg>
