<svg width="78" height="79" viewBox="0 0 78 79" fill="none" xmlns="http://www.w3.org/2000/svg">
<path d="M65.2936 50.1542L51.2054 46.4318L61.1008 57.1277L48.6343 49.5841L55.1134 62.64L45.2801 51.8874L47.8193 66.2422L41.4137 53.1505L39.808 67.6423L37.349 53.2737L31.7271 66.7274L33.4151 52.2451L24.2324 63.5738L29.9319 50.1508L17.9324 58.4333L27.1785 47.1587L13.3362 51.726L25.3812 43.5108L10.8143 43.9928L24.6835 39.5037L10.5752 35.8612L25.1449 35.461L12.636 27.988L26.7233 31.7119L16.8288 21.0145L29.2953 28.5581L22.8153 15.5037L32.6486 26.2563L30.1093 11.9015L36.5149 24.9932L38.1221 10.5023L40.5797 24.87L46.2025 11.4148L44.5136 25.8986L53.6963 14.5698L47.9968 27.9929L59.9971 19.7089L50.7502 30.985L64.5939 26.4186L52.5475 34.6329L67.1144 34.1509L53.2451 38.64L67.3535 42.2824L52.7847 42.6812L65.2936 50.1542Z" fill="#F2C94C"/>
</svg>
