<svg width="240" height="14" viewBox="0 0 240 14" fill="none" xmlns="http://www.w3.org/2000/svg">
<path fill-rule="evenodd" clip-rule="evenodd" d="M101.811 1.41356C90.5487 1.86434 79.4189 2.41862 68.5655 3.02458C53.2014 3.88181 37.8432 4.76859 22.5776 6.17266C17.7723 6.61605 12.8925 6.89685 8.11725 7.45109C5.11966 7.79841 1.14492 8.29347 0.623284 8.39692C0.350448 8.45604 0.231419 8.5448 0.192957 8.57436C-0.0774754 8.78128 -0.0281314 8.98072 0.124513 9.13591C0.185811 9.20242 0.340815 9.36506 0.771103 9.38723C29.5475 10.9021 58.973 7.94621 87.7843 7.63584C137.748 7.10377 189.226 9.21727 238.794 13.8285C239.226 13.8655 239.647 13.6807 239.707 13.4073C239.779 13.1412 239.467 12.8826 239.034 12.8456C189.383 8.22697 137.82 6.10608 87.7602 6.64553C60.9093 6.93374 33.5283 9.52763 6.64008 8.64085C7.25787 8.56695 7.86367 8.49302 8.41656 8.42651C13.1726 7.87227 18.0319 7.59887 22.818 7.15548C38.0511 5.75141 53.3781 4.86463 68.7218 4.0148C87.7602 2.95066 107.628 2.03431 127.652 1.6057C134.815 1.67221 141.955 1.73875 149.094 1.82004C164.539 1.99739 180.056 2.51468 195.464 3.20933C200.104 3.42364 204.743 3.64531 209.383 3.83745C210.921 3.90396 214.888 4.09606 215.44 4.08128C216.126 4.0665 216.258 3.71182 216.27 3.6527C216.306 3.51969 216.282 3.33493 215.945 3.17974C215.909 3.15757 215.693 3.08363 215.212 3.03929C187.195 0.423283 157.279 -0.012649 127.676 0.615488C96.4501 0.342063 65.104 0.223772 33.9574 0.0981445C33.5115 0.0981445 33.1473 0.319872 33.1437 0.593296C33.1413 0.866721 33.5006 1.08846 33.9465 1.09585C56.4994 1.18452 79.1665 1.27315 101.811 1.41356Z" fill="#5087C9"/>
</svg>
